G04 #@! TF.GenerationSoftware,KiCad,Pcbnew,(5.1.0-rc1-9-g8f320697a)*
G04 #@! TF.CreationDate,2019-03-02T18:11:08+09:00
G04 #@! TF.ProjectId,Tag_Connect_KiC,5461675f-436f-46e6-9e65-63745f4b6943,rev?*
G04 #@! TF.SameCoordinates,Original*
G04 #@! TF.FileFunction,Soldermask,Top*
G04 #@! TF.FilePolarity,Negative*
%FSLAX46Y46*%
G04 Gerber Fmt 4.6, Leading zero omitted, Abs format (unit mm)*
G04 Created by KiCad (PCBNEW (5.1.0-rc1-9-g8f320697a)) date 2019-03-02 18:11:08*
%MOMM*%
%LPD*%
G04 APERTURE LIST*
%ADD10C,0.100000*%
G04 APERTURE END LIST*
D10*
G36*
X111366610Y-93019347D02*
G01*
X111486242Y-93043143D01*
X111542155Y-93066303D01*
X111704372Y-93133495D01*
X111711626Y-93136500D01*
X111914466Y-93272033D01*
X112086967Y-93444534D01*
X112222500Y-93647374D01*
X112315857Y-93872758D01*
X112363450Y-94112023D01*
X112363450Y-94355977D01*
X112315857Y-94595242D01*
X112222500Y-94820626D01*
X112086967Y-95023466D01*
X111914466Y-95195967D01*
X111711626Y-95331500D01*
X111486242Y-95424857D01*
X111366610Y-95448653D01*
X111246978Y-95472450D01*
X111003022Y-95472450D01*
X110883391Y-95448654D01*
X110763758Y-95424857D01*
X110538374Y-95331500D01*
X110335534Y-95195967D01*
X110163033Y-95023466D01*
X110027500Y-94820626D01*
X109934143Y-94595242D01*
X109886550Y-94355977D01*
X109886550Y-94112023D01*
X109934143Y-93872758D01*
X110027500Y-93647374D01*
X110163033Y-93444534D01*
X110335534Y-93272033D01*
X110538374Y-93136500D01*
X110545629Y-93133495D01*
X110707845Y-93066303D01*
X110763758Y-93043143D01*
X110883390Y-93019347D01*
X111003022Y-92995550D01*
X111246978Y-92995550D01*
X111366610Y-93019347D01*
X111366610Y-93019347D01*
G37*
G36*
X103111610Y-93019347D02*
G01*
X103231242Y-93043143D01*
X103287155Y-93066303D01*
X103449372Y-93133495D01*
X103456626Y-93136500D01*
X103659466Y-93272033D01*
X103831967Y-93444534D01*
X103967500Y-93647374D01*
X104060857Y-93872758D01*
X104108450Y-94112023D01*
X104108450Y-94355977D01*
X104060857Y-94595242D01*
X103967500Y-94820626D01*
X103831967Y-95023466D01*
X103659466Y-95195967D01*
X103456626Y-95331500D01*
X103231242Y-95424857D01*
X103111610Y-95448653D01*
X102991978Y-95472450D01*
X102748022Y-95472450D01*
X102628391Y-95448654D01*
X102508758Y-95424857D01*
X102283374Y-95331500D01*
X102080534Y-95195967D01*
X101908033Y-95023466D01*
X101772500Y-94820626D01*
X101679143Y-94595242D01*
X101631550Y-94355977D01*
X101631550Y-94112023D01*
X101679143Y-93872758D01*
X101772500Y-93647374D01*
X101908033Y-93444534D01*
X102080534Y-93272033D01*
X102283374Y-93136500D01*
X102290629Y-93133495D01*
X102452845Y-93066303D01*
X102508758Y-93043143D01*
X102628390Y-93019347D01*
X102748022Y-92995550D01*
X102991978Y-92995550D01*
X103111610Y-93019347D01*
X103111610Y-93019347D01*
G37*
G36*
X113189408Y-92183501D02*
G01*
X113288863Y-92224697D01*
X113288865Y-92224698D01*
X113333923Y-92254805D01*
X113378372Y-92284505D01*
X113454495Y-92360628D01*
X113514303Y-92450137D01*
X113555499Y-92549592D01*
X113576500Y-92655173D01*
X113576500Y-92762827D01*
X113555499Y-92868408D01*
X113514303Y-92967863D01*
X113454495Y-93057372D01*
X113378372Y-93133495D01*
X113333923Y-93163195D01*
X113288865Y-93193302D01*
X113288864Y-93193303D01*
X113288863Y-93193303D01*
X113189408Y-93234499D01*
X113083827Y-93255500D01*
X112976173Y-93255500D01*
X112870592Y-93234499D01*
X112771137Y-93193303D01*
X112771136Y-93193303D01*
X112771135Y-93193302D01*
X112726077Y-93163195D01*
X112681628Y-93133495D01*
X112605505Y-93057372D01*
X112545697Y-92967863D01*
X112504501Y-92868408D01*
X112483500Y-92762827D01*
X112483500Y-92655173D01*
X112504501Y-92549592D01*
X112545697Y-92450137D01*
X112605505Y-92360628D01*
X112681628Y-92284505D01*
X112726077Y-92254805D01*
X112771135Y-92224698D01*
X112771137Y-92224697D01*
X112870592Y-92183501D01*
X112976173Y-92162500D01*
X113083827Y-92162500D01*
X113189408Y-92183501D01*
X113189408Y-92183501D01*
G37*
G36*
X129064408Y-92056501D02*
G01*
X129163863Y-92097697D01*
X129163865Y-92097698D01*
X129208923Y-92127805D01*
X129253372Y-92157505D01*
X129329495Y-92233628D01*
X129389303Y-92323137D01*
X129430499Y-92422592D01*
X129451500Y-92528173D01*
X129451500Y-92635827D01*
X129430499Y-92741408D01*
X129389303Y-92840863D01*
X129389302Y-92840865D01*
X129329494Y-92930373D01*
X129253373Y-93006494D01*
X129163865Y-93066302D01*
X129163864Y-93066303D01*
X129163863Y-93066303D01*
X129064408Y-93107499D01*
X128958827Y-93128500D01*
X128851173Y-93128500D01*
X128745592Y-93107499D01*
X128646137Y-93066303D01*
X128646136Y-93066303D01*
X128646135Y-93066302D01*
X128556627Y-93006494D01*
X128480506Y-92930373D01*
X128420698Y-92840865D01*
X128420697Y-92840863D01*
X128379501Y-92741408D01*
X128358500Y-92635827D01*
X128358500Y-92528173D01*
X128379501Y-92422592D01*
X128420697Y-92323137D01*
X128480505Y-92233628D01*
X128556628Y-92157505D01*
X128601077Y-92127805D01*
X128646135Y-92097698D01*
X128646137Y-92097697D01*
X128745592Y-92056501D01*
X128851173Y-92035500D01*
X128958827Y-92035500D01*
X129064408Y-92056501D01*
X129064408Y-92056501D01*
G37*
G36*
X106809656Y-91901581D02*
G01*
X106890548Y-91935088D01*
X106890550Y-91935089D01*
X106963352Y-91983734D01*
X107025266Y-92045648D01*
X107073912Y-92118452D01*
X107107419Y-92199344D01*
X107124500Y-92285219D01*
X107124500Y-92372781D01*
X107107419Y-92458656D01*
X107078623Y-92528174D01*
X107073911Y-92539550D01*
X107025266Y-92612352D01*
X106963352Y-92674266D01*
X106890550Y-92722911D01*
X106890549Y-92722912D01*
X106890548Y-92722912D01*
X106809656Y-92756419D01*
X106723781Y-92773500D01*
X106636219Y-92773500D01*
X106550344Y-92756419D01*
X106469452Y-92722912D01*
X106469451Y-92722912D01*
X106469450Y-92722911D01*
X106396648Y-92674266D01*
X106334734Y-92612352D01*
X106286089Y-92539550D01*
X106281377Y-92528174D01*
X106252581Y-92458656D01*
X106235500Y-92372781D01*
X106235500Y-92285219D01*
X106252581Y-92199344D01*
X106286088Y-92118452D01*
X106334734Y-92045648D01*
X106396648Y-91983734D01*
X106469450Y-91935089D01*
X106469452Y-91935088D01*
X106550344Y-91901581D01*
X106636219Y-91884500D01*
X106723781Y-91884500D01*
X106809656Y-91901581D01*
X106809656Y-91901581D01*
G37*
G36*
X105539656Y-91901581D02*
G01*
X105620548Y-91935088D01*
X105620550Y-91935089D01*
X105693352Y-91983734D01*
X105755266Y-92045648D01*
X105803912Y-92118452D01*
X105837419Y-92199344D01*
X105854500Y-92285219D01*
X105854500Y-92372781D01*
X105837419Y-92458656D01*
X105808623Y-92528174D01*
X105803911Y-92539550D01*
X105755266Y-92612352D01*
X105693352Y-92674266D01*
X105620550Y-92722911D01*
X105620549Y-92722912D01*
X105620548Y-92722912D01*
X105539656Y-92756419D01*
X105453781Y-92773500D01*
X105366219Y-92773500D01*
X105280344Y-92756419D01*
X105199452Y-92722912D01*
X105199451Y-92722912D01*
X105199450Y-92722911D01*
X105126648Y-92674266D01*
X105064734Y-92612352D01*
X105016089Y-92539550D01*
X105011377Y-92528174D01*
X104982581Y-92458656D01*
X104965500Y-92372781D01*
X104965500Y-92285219D01*
X104982581Y-92199344D01*
X105016088Y-92118452D01*
X105064734Y-92045648D01*
X105126648Y-91983734D01*
X105199450Y-91935089D01*
X105199452Y-91935088D01*
X105280344Y-91901581D01*
X105366219Y-91884500D01*
X105453781Y-91884500D01*
X105539656Y-91901581D01*
X105539656Y-91901581D01*
G37*
G36*
X104269656Y-91901581D02*
G01*
X104350548Y-91935088D01*
X104350550Y-91935089D01*
X104423352Y-91983734D01*
X104485266Y-92045648D01*
X104533912Y-92118452D01*
X104567419Y-92199344D01*
X104584500Y-92285219D01*
X104584500Y-92372781D01*
X104567419Y-92458656D01*
X104538623Y-92528174D01*
X104533911Y-92539550D01*
X104485266Y-92612352D01*
X104423352Y-92674266D01*
X104350550Y-92722911D01*
X104350549Y-92722912D01*
X104350548Y-92722912D01*
X104269656Y-92756419D01*
X104183781Y-92773500D01*
X104096219Y-92773500D01*
X104010344Y-92756419D01*
X103929452Y-92722912D01*
X103929451Y-92722912D01*
X103929450Y-92722911D01*
X103856648Y-92674266D01*
X103794734Y-92612352D01*
X103746089Y-92539550D01*
X103741377Y-92528174D01*
X103712581Y-92458656D01*
X103695500Y-92372781D01*
X103695500Y-92285219D01*
X103712581Y-92199344D01*
X103746088Y-92118452D01*
X103794734Y-92045648D01*
X103856648Y-91983734D01*
X103929450Y-91935089D01*
X103929452Y-91935088D01*
X104010344Y-91901581D01*
X104096219Y-91884500D01*
X104183781Y-91884500D01*
X104269656Y-91901581D01*
X104269656Y-91901581D01*
G37*
G36*
X108079656Y-91901581D02*
G01*
X108160548Y-91935088D01*
X108160550Y-91935089D01*
X108233352Y-91983734D01*
X108295266Y-92045648D01*
X108343912Y-92118452D01*
X108377419Y-92199344D01*
X108394500Y-92285219D01*
X108394500Y-92372781D01*
X108377419Y-92458656D01*
X108348623Y-92528174D01*
X108343911Y-92539550D01*
X108295266Y-92612352D01*
X108233352Y-92674266D01*
X108160550Y-92722911D01*
X108160549Y-92722912D01*
X108160548Y-92722912D01*
X108079656Y-92756419D01*
X107993781Y-92773500D01*
X107906219Y-92773500D01*
X107820344Y-92756419D01*
X107739452Y-92722912D01*
X107739451Y-92722912D01*
X107739450Y-92722911D01*
X107666648Y-92674266D01*
X107604734Y-92612352D01*
X107556089Y-92539550D01*
X107551377Y-92528174D01*
X107522581Y-92458656D01*
X107505500Y-92372781D01*
X107505500Y-92285219D01*
X107522581Y-92199344D01*
X107556088Y-92118452D01*
X107604734Y-92045648D01*
X107666648Y-91983734D01*
X107739450Y-91935089D01*
X107739452Y-91935088D01*
X107820344Y-91901581D01*
X107906219Y-91884500D01*
X107993781Y-91884500D01*
X108079656Y-91901581D01*
X108079656Y-91901581D01*
G37*
G36*
X111889656Y-91901581D02*
G01*
X111970548Y-91935088D01*
X111970550Y-91935089D01*
X112043352Y-91983734D01*
X112105266Y-92045648D01*
X112153912Y-92118452D01*
X112187419Y-92199344D01*
X112204500Y-92285219D01*
X112204500Y-92372781D01*
X112187419Y-92458656D01*
X112158623Y-92528174D01*
X112153911Y-92539550D01*
X112105266Y-92612352D01*
X112043352Y-92674266D01*
X111970550Y-92722911D01*
X111970549Y-92722912D01*
X111970548Y-92722912D01*
X111889656Y-92756419D01*
X111803781Y-92773500D01*
X111716219Y-92773500D01*
X111630344Y-92756419D01*
X111549452Y-92722912D01*
X111549451Y-92722912D01*
X111549450Y-92722911D01*
X111476648Y-92674266D01*
X111414734Y-92612352D01*
X111366089Y-92539550D01*
X111361377Y-92528174D01*
X111332581Y-92458656D01*
X111315500Y-92372781D01*
X111315500Y-92285219D01*
X111332581Y-92199344D01*
X111366088Y-92118452D01*
X111414734Y-92045648D01*
X111476648Y-91983734D01*
X111549450Y-91935089D01*
X111549452Y-91935088D01*
X111630344Y-91901581D01*
X111716219Y-91884500D01*
X111803781Y-91884500D01*
X111889656Y-91901581D01*
X111889656Y-91901581D01*
G37*
G36*
X110619656Y-91901581D02*
G01*
X110700548Y-91935088D01*
X110700550Y-91935089D01*
X110773352Y-91983734D01*
X110835266Y-92045648D01*
X110883912Y-92118452D01*
X110917419Y-92199344D01*
X110934500Y-92285219D01*
X110934500Y-92372781D01*
X110917419Y-92458656D01*
X110888623Y-92528174D01*
X110883911Y-92539550D01*
X110835266Y-92612352D01*
X110773352Y-92674266D01*
X110700550Y-92722911D01*
X110700549Y-92722912D01*
X110700548Y-92722912D01*
X110619656Y-92756419D01*
X110533781Y-92773500D01*
X110446219Y-92773500D01*
X110360344Y-92756419D01*
X110279452Y-92722912D01*
X110279451Y-92722912D01*
X110279450Y-92722911D01*
X110206648Y-92674266D01*
X110144734Y-92612352D01*
X110096089Y-92539550D01*
X110091377Y-92528174D01*
X110062581Y-92458656D01*
X110045500Y-92372781D01*
X110045500Y-92285219D01*
X110062581Y-92199344D01*
X110096088Y-92118452D01*
X110144734Y-92045648D01*
X110206648Y-91983734D01*
X110279450Y-91935089D01*
X110279452Y-91935088D01*
X110360344Y-91901581D01*
X110446219Y-91884500D01*
X110533781Y-91884500D01*
X110619656Y-91901581D01*
X110619656Y-91901581D01*
G37*
G36*
X109349656Y-91901581D02*
G01*
X109430548Y-91935088D01*
X109430550Y-91935089D01*
X109503352Y-91983734D01*
X109565266Y-92045648D01*
X109613912Y-92118452D01*
X109647419Y-92199344D01*
X109664500Y-92285219D01*
X109664500Y-92372781D01*
X109647419Y-92458656D01*
X109618623Y-92528174D01*
X109613911Y-92539550D01*
X109565266Y-92612352D01*
X109503352Y-92674266D01*
X109430550Y-92722911D01*
X109430549Y-92722912D01*
X109430548Y-92722912D01*
X109349656Y-92756419D01*
X109263781Y-92773500D01*
X109176219Y-92773500D01*
X109090344Y-92756419D01*
X109009452Y-92722912D01*
X109009451Y-92722912D01*
X109009450Y-92722911D01*
X108936648Y-92674266D01*
X108874734Y-92612352D01*
X108826089Y-92539550D01*
X108821377Y-92528174D01*
X108792581Y-92458656D01*
X108775500Y-92372781D01*
X108775500Y-92285219D01*
X108792581Y-92199344D01*
X108826088Y-92118452D01*
X108874734Y-92045648D01*
X108936648Y-91983734D01*
X109009450Y-91935089D01*
X109009452Y-91935088D01*
X109090344Y-91901581D01*
X109176219Y-91884500D01*
X109263781Y-91884500D01*
X109349656Y-91901581D01*
X109349656Y-91901581D01*
G37*
G36*
X123954656Y-91774581D02*
G01*
X124035548Y-91808088D01*
X124035550Y-91808089D01*
X124103374Y-91853408D01*
X124108352Y-91856734D01*
X124170266Y-91918648D01*
X124218912Y-91991452D01*
X124252419Y-92072344D01*
X124269500Y-92158219D01*
X124269500Y-92245781D01*
X124252419Y-92331656D01*
X124235384Y-92372781D01*
X124218911Y-92412550D01*
X124170266Y-92485352D01*
X124108352Y-92547266D01*
X124035550Y-92595911D01*
X124035549Y-92595912D01*
X124035548Y-92595912D01*
X123954656Y-92629419D01*
X123868781Y-92646500D01*
X123781219Y-92646500D01*
X123695344Y-92629419D01*
X123614452Y-92595912D01*
X123614451Y-92595912D01*
X123614450Y-92595911D01*
X123541648Y-92547266D01*
X123479734Y-92485352D01*
X123431089Y-92412550D01*
X123414616Y-92372781D01*
X123397581Y-92331656D01*
X123380500Y-92245781D01*
X123380500Y-92158219D01*
X123397581Y-92072344D01*
X123431088Y-91991452D01*
X123479734Y-91918648D01*
X123541648Y-91856734D01*
X123546626Y-91853408D01*
X123614450Y-91808089D01*
X123614452Y-91808088D01*
X123695344Y-91774581D01*
X123781219Y-91757500D01*
X123868781Y-91757500D01*
X123954656Y-91774581D01*
X123954656Y-91774581D01*
G37*
G36*
X127764656Y-91774581D02*
G01*
X127845548Y-91808088D01*
X127845550Y-91808089D01*
X127913374Y-91853408D01*
X127918352Y-91856734D01*
X127980266Y-91918648D01*
X128028912Y-91991452D01*
X128062419Y-92072344D01*
X128079500Y-92158219D01*
X128079500Y-92245781D01*
X128062419Y-92331656D01*
X128045384Y-92372781D01*
X128028911Y-92412550D01*
X127980266Y-92485352D01*
X127918352Y-92547266D01*
X127845550Y-92595911D01*
X127845549Y-92595912D01*
X127845548Y-92595912D01*
X127764656Y-92629419D01*
X127678781Y-92646500D01*
X127591219Y-92646500D01*
X127505344Y-92629419D01*
X127424452Y-92595912D01*
X127424451Y-92595912D01*
X127424450Y-92595911D01*
X127351648Y-92547266D01*
X127289734Y-92485352D01*
X127241089Y-92412550D01*
X127224616Y-92372781D01*
X127207581Y-92331656D01*
X127190500Y-92245781D01*
X127190500Y-92158219D01*
X127207581Y-92072344D01*
X127241088Y-91991452D01*
X127289734Y-91918648D01*
X127351648Y-91856734D01*
X127356626Y-91853408D01*
X127424450Y-91808089D01*
X127424452Y-91808088D01*
X127505344Y-91774581D01*
X127591219Y-91757500D01*
X127678781Y-91757500D01*
X127764656Y-91774581D01*
X127764656Y-91774581D01*
G37*
G36*
X126494656Y-91774581D02*
G01*
X126575548Y-91808088D01*
X126575550Y-91808089D01*
X126643374Y-91853408D01*
X126648352Y-91856734D01*
X126710266Y-91918648D01*
X126758912Y-91991452D01*
X126792419Y-92072344D01*
X126809500Y-92158219D01*
X126809500Y-92245781D01*
X126792419Y-92331656D01*
X126775384Y-92372781D01*
X126758911Y-92412550D01*
X126710266Y-92485352D01*
X126648352Y-92547266D01*
X126575550Y-92595911D01*
X126575549Y-92595912D01*
X126575548Y-92595912D01*
X126494656Y-92629419D01*
X126408781Y-92646500D01*
X126321219Y-92646500D01*
X126235344Y-92629419D01*
X126154452Y-92595912D01*
X126154451Y-92595912D01*
X126154450Y-92595911D01*
X126081648Y-92547266D01*
X126019734Y-92485352D01*
X125971089Y-92412550D01*
X125954616Y-92372781D01*
X125937581Y-92331656D01*
X125920500Y-92245781D01*
X125920500Y-92158219D01*
X125937581Y-92072344D01*
X125971088Y-91991452D01*
X126019734Y-91918648D01*
X126081648Y-91856734D01*
X126086626Y-91853408D01*
X126154450Y-91808089D01*
X126154452Y-91808088D01*
X126235344Y-91774581D01*
X126321219Y-91757500D01*
X126408781Y-91757500D01*
X126494656Y-91774581D01*
X126494656Y-91774581D01*
G37*
G36*
X125224656Y-91774581D02*
G01*
X125305548Y-91808088D01*
X125305550Y-91808089D01*
X125373374Y-91853408D01*
X125378352Y-91856734D01*
X125440266Y-91918648D01*
X125488912Y-91991452D01*
X125522419Y-92072344D01*
X125539500Y-92158219D01*
X125539500Y-92245781D01*
X125522419Y-92331656D01*
X125505384Y-92372781D01*
X125488911Y-92412550D01*
X125440266Y-92485352D01*
X125378352Y-92547266D01*
X125305550Y-92595911D01*
X125305549Y-92595912D01*
X125305548Y-92595912D01*
X125224656Y-92629419D01*
X125138781Y-92646500D01*
X125051219Y-92646500D01*
X124965344Y-92629419D01*
X124884452Y-92595912D01*
X124884451Y-92595912D01*
X124884450Y-92595911D01*
X124811648Y-92547266D01*
X124749734Y-92485352D01*
X124701089Y-92412550D01*
X124684616Y-92372781D01*
X124667581Y-92331656D01*
X124650500Y-92245781D01*
X124650500Y-92158219D01*
X124667581Y-92072344D01*
X124701088Y-91991452D01*
X124749734Y-91918648D01*
X124811648Y-91856734D01*
X124816626Y-91853408D01*
X124884450Y-91808089D01*
X124884452Y-91808088D01*
X124965344Y-91774581D01*
X125051219Y-91757500D01*
X125138781Y-91757500D01*
X125224656Y-91774581D01*
X125224656Y-91774581D01*
G37*
G36*
X122684656Y-91774581D02*
G01*
X122765548Y-91808088D01*
X122765550Y-91808089D01*
X122833374Y-91853408D01*
X122838352Y-91856734D01*
X122900266Y-91918648D01*
X122948912Y-91991452D01*
X122982419Y-92072344D01*
X122999500Y-92158219D01*
X122999500Y-92245781D01*
X122982419Y-92331656D01*
X122965384Y-92372781D01*
X122948911Y-92412550D01*
X122900266Y-92485352D01*
X122838352Y-92547266D01*
X122765550Y-92595911D01*
X122765549Y-92595912D01*
X122765548Y-92595912D01*
X122684656Y-92629419D01*
X122598781Y-92646500D01*
X122511219Y-92646500D01*
X122425344Y-92629419D01*
X122344452Y-92595912D01*
X122344451Y-92595912D01*
X122344450Y-92595911D01*
X122271648Y-92547266D01*
X122209734Y-92485352D01*
X122161089Y-92412550D01*
X122144616Y-92372781D01*
X122127581Y-92331656D01*
X122110500Y-92245781D01*
X122110500Y-92158219D01*
X122127581Y-92072344D01*
X122161088Y-91991452D01*
X122209734Y-91918648D01*
X122271648Y-91856734D01*
X122276626Y-91853408D01*
X122344450Y-91808089D01*
X122344452Y-91808088D01*
X122425344Y-91774581D01*
X122511219Y-91757500D01*
X122598781Y-91757500D01*
X122684656Y-91774581D01*
X122684656Y-91774581D01*
G37*
G36*
X121414656Y-91774581D02*
G01*
X121495548Y-91808088D01*
X121495550Y-91808089D01*
X121563374Y-91853408D01*
X121568352Y-91856734D01*
X121630266Y-91918648D01*
X121678912Y-91991452D01*
X121712419Y-92072344D01*
X121729500Y-92158219D01*
X121729500Y-92245781D01*
X121712419Y-92331656D01*
X121695384Y-92372781D01*
X121678911Y-92412550D01*
X121630266Y-92485352D01*
X121568352Y-92547266D01*
X121495550Y-92595911D01*
X121495549Y-92595912D01*
X121495548Y-92595912D01*
X121414656Y-92629419D01*
X121328781Y-92646500D01*
X121241219Y-92646500D01*
X121155344Y-92629419D01*
X121074452Y-92595912D01*
X121074451Y-92595912D01*
X121074450Y-92595911D01*
X121001648Y-92547266D01*
X120939734Y-92485352D01*
X120891089Y-92412550D01*
X120874616Y-92372781D01*
X120857581Y-92331656D01*
X120840500Y-92245781D01*
X120840500Y-92158219D01*
X120857581Y-92072344D01*
X120891088Y-91991452D01*
X120939734Y-91918648D01*
X121001648Y-91856734D01*
X121006626Y-91853408D01*
X121074450Y-91808089D01*
X121074452Y-91808088D01*
X121155344Y-91774581D01*
X121241219Y-91757500D01*
X121328781Y-91757500D01*
X121414656Y-91774581D01*
X121414656Y-91774581D01*
G37*
G36*
X120144656Y-91774581D02*
G01*
X120225548Y-91808088D01*
X120225550Y-91808089D01*
X120293374Y-91853408D01*
X120298352Y-91856734D01*
X120360266Y-91918648D01*
X120408912Y-91991452D01*
X120442419Y-92072344D01*
X120459500Y-92158219D01*
X120459500Y-92245781D01*
X120442419Y-92331656D01*
X120425384Y-92372781D01*
X120408911Y-92412550D01*
X120360266Y-92485352D01*
X120298352Y-92547266D01*
X120225550Y-92595911D01*
X120225549Y-92595912D01*
X120225548Y-92595912D01*
X120144656Y-92629419D01*
X120058781Y-92646500D01*
X119971219Y-92646500D01*
X119885344Y-92629419D01*
X119804452Y-92595912D01*
X119804451Y-92595912D01*
X119804450Y-92595911D01*
X119731648Y-92547266D01*
X119669734Y-92485352D01*
X119621089Y-92412550D01*
X119604616Y-92372781D01*
X119587581Y-92331656D01*
X119570500Y-92245781D01*
X119570500Y-92158219D01*
X119587581Y-92072344D01*
X119621088Y-91991452D01*
X119669734Y-91918648D01*
X119731648Y-91856734D01*
X119736626Y-91853408D01*
X119804450Y-91808089D01*
X119804452Y-91808088D01*
X119885344Y-91774581D01*
X119971219Y-91757500D01*
X120058781Y-91757500D01*
X120144656Y-91774581D01*
X120144656Y-91774581D01*
G37*
G36*
X103029408Y-91168501D02*
G01*
X103128863Y-91209697D01*
X103128865Y-91209698D01*
X103152514Y-91225500D01*
X103218372Y-91269505D01*
X103294495Y-91345628D01*
X103354303Y-91435137D01*
X103395499Y-91534592D01*
X103416500Y-91640173D01*
X103416500Y-91747827D01*
X103395499Y-91853408D01*
X103354303Y-91952863D01*
X103299087Y-92035500D01*
X103294494Y-92042373D01*
X103218373Y-92118494D01*
X103128865Y-92178302D01*
X103128864Y-92178303D01*
X103128863Y-92178303D01*
X103029408Y-92219499D01*
X102923827Y-92240500D01*
X102816173Y-92240500D01*
X102710592Y-92219499D01*
X102611137Y-92178303D01*
X102611136Y-92178303D01*
X102611135Y-92178302D01*
X102521627Y-92118494D01*
X102445506Y-92042373D01*
X102440914Y-92035500D01*
X102385697Y-91952863D01*
X102344501Y-91853408D01*
X102323500Y-91747827D01*
X102323500Y-91640173D01*
X102344501Y-91534592D01*
X102385697Y-91435137D01*
X102445505Y-91345628D01*
X102521628Y-91269505D01*
X102587486Y-91225500D01*
X102611135Y-91209698D01*
X102611137Y-91209697D01*
X102710592Y-91168501D01*
X102816173Y-91147500D01*
X102923827Y-91147500D01*
X103029408Y-91168501D01*
X103029408Y-91168501D01*
G37*
G36*
X118904408Y-91041501D02*
G01*
X119003863Y-91082697D01*
X119003865Y-91082698D01*
X119048923Y-91112805D01*
X119093372Y-91142505D01*
X119169495Y-91218628D01*
X119229303Y-91308137D01*
X119270499Y-91407592D01*
X119291500Y-91513173D01*
X119291500Y-91620827D01*
X119270499Y-91726408D01*
X119236665Y-91808089D01*
X119229302Y-91825865D01*
X119169494Y-91915373D01*
X119093373Y-91991494D01*
X119003865Y-92051302D01*
X119003864Y-92051303D01*
X119003863Y-92051303D01*
X118904408Y-92092499D01*
X118798827Y-92113500D01*
X118691173Y-92113500D01*
X118585592Y-92092499D01*
X118486137Y-92051303D01*
X118486136Y-92051303D01*
X118486135Y-92051302D01*
X118396627Y-91991494D01*
X118320506Y-91915373D01*
X118260698Y-91825865D01*
X118253335Y-91808089D01*
X118219501Y-91726408D01*
X118198500Y-91620827D01*
X118198500Y-91513173D01*
X118219501Y-91407592D01*
X118260697Y-91308137D01*
X118320505Y-91218628D01*
X118396628Y-91142505D01*
X118441077Y-91112805D01*
X118486135Y-91082698D01*
X118486137Y-91082697D01*
X118585592Y-91041501D01*
X118691173Y-91020500D01*
X118798827Y-91020500D01*
X118904408Y-91041501D01*
X118904408Y-91041501D01*
G37*
G36*
X109349656Y-90631581D02*
G01*
X109430548Y-90665088D01*
X109430550Y-90665089D01*
X109499871Y-90711408D01*
X109503352Y-90713734D01*
X109565266Y-90775648D01*
X109613912Y-90848452D01*
X109647419Y-90929344D01*
X109664500Y-91015219D01*
X109664500Y-91102781D01*
X109647419Y-91188656D01*
X109613930Y-91269505D01*
X109613911Y-91269550D01*
X109565266Y-91342352D01*
X109503352Y-91404266D01*
X109430550Y-91452911D01*
X109430549Y-91452912D01*
X109430548Y-91452912D01*
X109349656Y-91486419D01*
X109263781Y-91503500D01*
X109176219Y-91503500D01*
X109090344Y-91486419D01*
X109009452Y-91452912D01*
X109009451Y-91452912D01*
X109009450Y-91452911D01*
X108936648Y-91404266D01*
X108874734Y-91342352D01*
X108826089Y-91269550D01*
X108826070Y-91269505D01*
X108792581Y-91188656D01*
X108775500Y-91102781D01*
X108775500Y-91015219D01*
X108792581Y-90929344D01*
X108826088Y-90848452D01*
X108874734Y-90775648D01*
X108936648Y-90713734D01*
X108940129Y-90711408D01*
X109009450Y-90665089D01*
X109009452Y-90665088D01*
X109090344Y-90631581D01*
X109176219Y-90614500D01*
X109263781Y-90614500D01*
X109349656Y-90631581D01*
X109349656Y-90631581D01*
G37*
G36*
X110619656Y-90631581D02*
G01*
X110700548Y-90665088D01*
X110700550Y-90665089D01*
X110769871Y-90711408D01*
X110773352Y-90713734D01*
X110835266Y-90775648D01*
X110883912Y-90848452D01*
X110917419Y-90929344D01*
X110934500Y-91015219D01*
X110934500Y-91102781D01*
X110917419Y-91188656D01*
X110883930Y-91269505D01*
X110883911Y-91269550D01*
X110835266Y-91342352D01*
X110773352Y-91404266D01*
X110700550Y-91452911D01*
X110700549Y-91452912D01*
X110700548Y-91452912D01*
X110619656Y-91486419D01*
X110533781Y-91503500D01*
X110446219Y-91503500D01*
X110360344Y-91486419D01*
X110279452Y-91452912D01*
X110279451Y-91452912D01*
X110279450Y-91452911D01*
X110206648Y-91404266D01*
X110144734Y-91342352D01*
X110096089Y-91269550D01*
X110096070Y-91269505D01*
X110062581Y-91188656D01*
X110045500Y-91102781D01*
X110045500Y-91015219D01*
X110062581Y-90929344D01*
X110096088Y-90848452D01*
X110144734Y-90775648D01*
X110206648Y-90713734D01*
X110210129Y-90711408D01*
X110279450Y-90665089D01*
X110279452Y-90665088D01*
X110360344Y-90631581D01*
X110446219Y-90614500D01*
X110533781Y-90614500D01*
X110619656Y-90631581D01*
X110619656Y-90631581D01*
G37*
G36*
X111889656Y-90631581D02*
G01*
X111970548Y-90665088D01*
X111970550Y-90665089D01*
X112039871Y-90711408D01*
X112043352Y-90713734D01*
X112105266Y-90775648D01*
X112153912Y-90848452D01*
X112187419Y-90929344D01*
X112204500Y-91015219D01*
X112204500Y-91102781D01*
X112187419Y-91188656D01*
X112153930Y-91269505D01*
X112153911Y-91269550D01*
X112105266Y-91342352D01*
X112043352Y-91404266D01*
X111970550Y-91452911D01*
X111970549Y-91452912D01*
X111970548Y-91452912D01*
X111889656Y-91486419D01*
X111803781Y-91503500D01*
X111716219Y-91503500D01*
X111630344Y-91486419D01*
X111549452Y-91452912D01*
X111549451Y-91452912D01*
X111549450Y-91452911D01*
X111476648Y-91404266D01*
X111414734Y-91342352D01*
X111366089Y-91269550D01*
X111366070Y-91269505D01*
X111332581Y-91188656D01*
X111315500Y-91102781D01*
X111315500Y-91015219D01*
X111332581Y-90929344D01*
X111366088Y-90848452D01*
X111414734Y-90775648D01*
X111476648Y-90713734D01*
X111480129Y-90711408D01*
X111549450Y-90665089D01*
X111549452Y-90665088D01*
X111630344Y-90631581D01*
X111716219Y-90614500D01*
X111803781Y-90614500D01*
X111889656Y-90631581D01*
X111889656Y-90631581D01*
G37*
G36*
X108079656Y-90631581D02*
G01*
X108160548Y-90665088D01*
X108160550Y-90665089D01*
X108229871Y-90711408D01*
X108233352Y-90713734D01*
X108295266Y-90775648D01*
X108343912Y-90848452D01*
X108377419Y-90929344D01*
X108394500Y-91015219D01*
X108394500Y-91102781D01*
X108377419Y-91188656D01*
X108343930Y-91269505D01*
X108343911Y-91269550D01*
X108295266Y-91342352D01*
X108233352Y-91404266D01*
X108160550Y-91452911D01*
X108160549Y-91452912D01*
X108160548Y-91452912D01*
X108079656Y-91486419D01*
X107993781Y-91503500D01*
X107906219Y-91503500D01*
X107820344Y-91486419D01*
X107739452Y-91452912D01*
X107739451Y-91452912D01*
X107739450Y-91452911D01*
X107666648Y-91404266D01*
X107604734Y-91342352D01*
X107556089Y-91269550D01*
X107556070Y-91269505D01*
X107522581Y-91188656D01*
X107505500Y-91102781D01*
X107505500Y-91015219D01*
X107522581Y-90929344D01*
X107556088Y-90848452D01*
X107604734Y-90775648D01*
X107666648Y-90713734D01*
X107670129Y-90711408D01*
X107739450Y-90665089D01*
X107739452Y-90665088D01*
X107820344Y-90631581D01*
X107906219Y-90614500D01*
X107993781Y-90614500D01*
X108079656Y-90631581D01*
X108079656Y-90631581D01*
G37*
G36*
X106809656Y-90631581D02*
G01*
X106890548Y-90665088D01*
X106890550Y-90665089D01*
X106959871Y-90711408D01*
X106963352Y-90713734D01*
X107025266Y-90775648D01*
X107073912Y-90848452D01*
X107107419Y-90929344D01*
X107124500Y-91015219D01*
X107124500Y-91102781D01*
X107107419Y-91188656D01*
X107073930Y-91269505D01*
X107073911Y-91269550D01*
X107025266Y-91342352D01*
X106963352Y-91404266D01*
X106890550Y-91452911D01*
X106890549Y-91452912D01*
X106890548Y-91452912D01*
X106809656Y-91486419D01*
X106723781Y-91503500D01*
X106636219Y-91503500D01*
X106550344Y-91486419D01*
X106469452Y-91452912D01*
X106469451Y-91452912D01*
X106469450Y-91452911D01*
X106396648Y-91404266D01*
X106334734Y-91342352D01*
X106286089Y-91269550D01*
X106286070Y-91269505D01*
X106252581Y-91188656D01*
X106235500Y-91102781D01*
X106235500Y-91015219D01*
X106252581Y-90929344D01*
X106286088Y-90848452D01*
X106334734Y-90775648D01*
X106396648Y-90713734D01*
X106400129Y-90711408D01*
X106469450Y-90665089D01*
X106469452Y-90665088D01*
X106550344Y-90631581D01*
X106636219Y-90614500D01*
X106723781Y-90614500D01*
X106809656Y-90631581D01*
X106809656Y-90631581D01*
G37*
G36*
X105539656Y-90631581D02*
G01*
X105620548Y-90665088D01*
X105620550Y-90665089D01*
X105689871Y-90711408D01*
X105693352Y-90713734D01*
X105755266Y-90775648D01*
X105803912Y-90848452D01*
X105837419Y-90929344D01*
X105854500Y-91015219D01*
X105854500Y-91102781D01*
X105837419Y-91188656D01*
X105803930Y-91269505D01*
X105803911Y-91269550D01*
X105755266Y-91342352D01*
X105693352Y-91404266D01*
X105620550Y-91452911D01*
X105620549Y-91452912D01*
X105620548Y-91452912D01*
X105539656Y-91486419D01*
X105453781Y-91503500D01*
X105366219Y-91503500D01*
X105280344Y-91486419D01*
X105199452Y-91452912D01*
X105199451Y-91452912D01*
X105199450Y-91452911D01*
X105126648Y-91404266D01*
X105064734Y-91342352D01*
X105016089Y-91269550D01*
X105016070Y-91269505D01*
X104982581Y-91188656D01*
X104965500Y-91102781D01*
X104965500Y-91015219D01*
X104982581Y-90929344D01*
X105016088Y-90848452D01*
X105064734Y-90775648D01*
X105126648Y-90713734D01*
X105130129Y-90711408D01*
X105199450Y-90665089D01*
X105199452Y-90665088D01*
X105280344Y-90631581D01*
X105366219Y-90614500D01*
X105453781Y-90614500D01*
X105539656Y-90631581D01*
X105539656Y-90631581D01*
G37*
G36*
X104269656Y-90631581D02*
G01*
X104350548Y-90665088D01*
X104350550Y-90665089D01*
X104419871Y-90711408D01*
X104423352Y-90713734D01*
X104485266Y-90775648D01*
X104533912Y-90848452D01*
X104567419Y-90929344D01*
X104584500Y-91015219D01*
X104584500Y-91102781D01*
X104567419Y-91188656D01*
X104533930Y-91269505D01*
X104533911Y-91269550D01*
X104485266Y-91342352D01*
X104423352Y-91404266D01*
X104350550Y-91452911D01*
X104350549Y-91452912D01*
X104350548Y-91452912D01*
X104269656Y-91486419D01*
X104183781Y-91503500D01*
X104096219Y-91503500D01*
X104010344Y-91486419D01*
X103929452Y-91452912D01*
X103929451Y-91452912D01*
X103929450Y-91452911D01*
X103856648Y-91404266D01*
X103794734Y-91342352D01*
X103746089Y-91269550D01*
X103746070Y-91269505D01*
X103712581Y-91188656D01*
X103695500Y-91102781D01*
X103695500Y-91015219D01*
X103712581Y-90929344D01*
X103746088Y-90848452D01*
X103794734Y-90775648D01*
X103856648Y-90713734D01*
X103860129Y-90711408D01*
X103929450Y-90665089D01*
X103929452Y-90665088D01*
X104010344Y-90631581D01*
X104096219Y-90614500D01*
X104183781Y-90614500D01*
X104269656Y-90631581D01*
X104269656Y-90631581D01*
G37*
G36*
X120144656Y-90504581D02*
G01*
X120225548Y-90538088D01*
X120225550Y-90538089D01*
X120298352Y-90586734D01*
X120360266Y-90648648D01*
X120408912Y-90721452D01*
X120442419Y-90802344D01*
X120459500Y-90888219D01*
X120459500Y-90975781D01*
X120442419Y-91061656D01*
X120425088Y-91103495D01*
X120408911Y-91142550D01*
X120360266Y-91215352D01*
X120298352Y-91277266D01*
X120225550Y-91325911D01*
X120225549Y-91325912D01*
X120225548Y-91325912D01*
X120144656Y-91359419D01*
X120058781Y-91376500D01*
X119971219Y-91376500D01*
X119885344Y-91359419D01*
X119804452Y-91325912D01*
X119804451Y-91325912D01*
X119804450Y-91325911D01*
X119731648Y-91277266D01*
X119669734Y-91215352D01*
X119621089Y-91142550D01*
X119604912Y-91103495D01*
X119587581Y-91061656D01*
X119570500Y-90975781D01*
X119570500Y-90888219D01*
X119587581Y-90802344D01*
X119621088Y-90721452D01*
X119669734Y-90648648D01*
X119731648Y-90586734D01*
X119804450Y-90538089D01*
X119804452Y-90538088D01*
X119885344Y-90504581D01*
X119971219Y-90487500D01*
X120058781Y-90487500D01*
X120144656Y-90504581D01*
X120144656Y-90504581D01*
G37*
G36*
X127764656Y-90504581D02*
G01*
X127845548Y-90538088D01*
X127845550Y-90538089D01*
X127918352Y-90586734D01*
X127980266Y-90648648D01*
X128028912Y-90721452D01*
X128062419Y-90802344D01*
X128079500Y-90888219D01*
X128079500Y-90975781D01*
X128062419Y-91061656D01*
X128045088Y-91103495D01*
X128028911Y-91142550D01*
X127980266Y-91215352D01*
X127918352Y-91277266D01*
X127845550Y-91325911D01*
X127845549Y-91325912D01*
X127845548Y-91325912D01*
X127764656Y-91359419D01*
X127678781Y-91376500D01*
X127591219Y-91376500D01*
X127505344Y-91359419D01*
X127424452Y-91325912D01*
X127424451Y-91325912D01*
X127424450Y-91325911D01*
X127351648Y-91277266D01*
X127289734Y-91215352D01*
X127241089Y-91142550D01*
X127224912Y-91103495D01*
X127207581Y-91061656D01*
X127190500Y-90975781D01*
X127190500Y-90888219D01*
X127207581Y-90802344D01*
X127241088Y-90721452D01*
X127289734Y-90648648D01*
X127351648Y-90586734D01*
X127424450Y-90538089D01*
X127424452Y-90538088D01*
X127505344Y-90504581D01*
X127591219Y-90487500D01*
X127678781Y-90487500D01*
X127764656Y-90504581D01*
X127764656Y-90504581D01*
G37*
G36*
X126494656Y-90504581D02*
G01*
X126575548Y-90538088D01*
X126575550Y-90538089D01*
X126648352Y-90586734D01*
X126710266Y-90648648D01*
X126758912Y-90721452D01*
X126792419Y-90802344D01*
X126809500Y-90888219D01*
X126809500Y-90975781D01*
X126792419Y-91061656D01*
X126775088Y-91103495D01*
X126758911Y-91142550D01*
X126710266Y-91215352D01*
X126648352Y-91277266D01*
X126575550Y-91325911D01*
X126575549Y-91325912D01*
X126575548Y-91325912D01*
X126494656Y-91359419D01*
X126408781Y-91376500D01*
X126321219Y-91376500D01*
X126235344Y-91359419D01*
X126154452Y-91325912D01*
X126154451Y-91325912D01*
X126154450Y-91325911D01*
X126081648Y-91277266D01*
X126019734Y-91215352D01*
X125971089Y-91142550D01*
X125954912Y-91103495D01*
X125937581Y-91061656D01*
X125920500Y-90975781D01*
X125920500Y-90888219D01*
X125937581Y-90802344D01*
X125971088Y-90721452D01*
X126019734Y-90648648D01*
X126081648Y-90586734D01*
X126154450Y-90538089D01*
X126154452Y-90538088D01*
X126235344Y-90504581D01*
X126321219Y-90487500D01*
X126408781Y-90487500D01*
X126494656Y-90504581D01*
X126494656Y-90504581D01*
G37*
G36*
X125224656Y-90504581D02*
G01*
X125305548Y-90538088D01*
X125305550Y-90538089D01*
X125378352Y-90586734D01*
X125440266Y-90648648D01*
X125488912Y-90721452D01*
X125522419Y-90802344D01*
X125539500Y-90888219D01*
X125539500Y-90975781D01*
X125522419Y-91061656D01*
X125505088Y-91103495D01*
X125488911Y-91142550D01*
X125440266Y-91215352D01*
X125378352Y-91277266D01*
X125305550Y-91325911D01*
X125305549Y-91325912D01*
X125305548Y-91325912D01*
X125224656Y-91359419D01*
X125138781Y-91376500D01*
X125051219Y-91376500D01*
X124965344Y-91359419D01*
X124884452Y-91325912D01*
X124884451Y-91325912D01*
X124884450Y-91325911D01*
X124811648Y-91277266D01*
X124749734Y-91215352D01*
X124701089Y-91142550D01*
X124684912Y-91103495D01*
X124667581Y-91061656D01*
X124650500Y-90975781D01*
X124650500Y-90888219D01*
X124667581Y-90802344D01*
X124701088Y-90721452D01*
X124749734Y-90648648D01*
X124811648Y-90586734D01*
X124884450Y-90538089D01*
X124884452Y-90538088D01*
X124965344Y-90504581D01*
X125051219Y-90487500D01*
X125138781Y-90487500D01*
X125224656Y-90504581D01*
X125224656Y-90504581D01*
G37*
G36*
X123954656Y-90504581D02*
G01*
X124035548Y-90538088D01*
X124035550Y-90538089D01*
X124108352Y-90586734D01*
X124170266Y-90648648D01*
X124218912Y-90721452D01*
X124252419Y-90802344D01*
X124269500Y-90888219D01*
X124269500Y-90975781D01*
X124252419Y-91061656D01*
X124235088Y-91103495D01*
X124218911Y-91142550D01*
X124170266Y-91215352D01*
X124108352Y-91277266D01*
X124035550Y-91325911D01*
X124035549Y-91325912D01*
X124035548Y-91325912D01*
X123954656Y-91359419D01*
X123868781Y-91376500D01*
X123781219Y-91376500D01*
X123695344Y-91359419D01*
X123614452Y-91325912D01*
X123614451Y-91325912D01*
X123614450Y-91325911D01*
X123541648Y-91277266D01*
X123479734Y-91215352D01*
X123431089Y-91142550D01*
X123414912Y-91103495D01*
X123397581Y-91061656D01*
X123380500Y-90975781D01*
X123380500Y-90888219D01*
X123397581Y-90802344D01*
X123431088Y-90721452D01*
X123479734Y-90648648D01*
X123541648Y-90586734D01*
X123614450Y-90538089D01*
X123614452Y-90538088D01*
X123695344Y-90504581D01*
X123781219Y-90487500D01*
X123868781Y-90487500D01*
X123954656Y-90504581D01*
X123954656Y-90504581D01*
G37*
G36*
X122684656Y-90504581D02*
G01*
X122765548Y-90538088D01*
X122765550Y-90538089D01*
X122838352Y-90586734D01*
X122900266Y-90648648D01*
X122948912Y-90721452D01*
X122982419Y-90802344D01*
X122999500Y-90888219D01*
X122999500Y-90975781D01*
X122982419Y-91061656D01*
X122965088Y-91103495D01*
X122948911Y-91142550D01*
X122900266Y-91215352D01*
X122838352Y-91277266D01*
X122765550Y-91325911D01*
X122765549Y-91325912D01*
X122765548Y-91325912D01*
X122684656Y-91359419D01*
X122598781Y-91376500D01*
X122511219Y-91376500D01*
X122425344Y-91359419D01*
X122344452Y-91325912D01*
X122344451Y-91325912D01*
X122344450Y-91325911D01*
X122271648Y-91277266D01*
X122209734Y-91215352D01*
X122161089Y-91142550D01*
X122144912Y-91103495D01*
X122127581Y-91061656D01*
X122110500Y-90975781D01*
X122110500Y-90888219D01*
X122127581Y-90802344D01*
X122161088Y-90721452D01*
X122209734Y-90648648D01*
X122271648Y-90586734D01*
X122344450Y-90538089D01*
X122344452Y-90538088D01*
X122425344Y-90504581D01*
X122511219Y-90487500D01*
X122598781Y-90487500D01*
X122684656Y-90504581D01*
X122684656Y-90504581D01*
G37*
G36*
X121414656Y-90504581D02*
G01*
X121495548Y-90538088D01*
X121495550Y-90538089D01*
X121568352Y-90586734D01*
X121630266Y-90648648D01*
X121678912Y-90721452D01*
X121712419Y-90802344D01*
X121729500Y-90888219D01*
X121729500Y-90975781D01*
X121712419Y-91061656D01*
X121695088Y-91103495D01*
X121678911Y-91142550D01*
X121630266Y-91215352D01*
X121568352Y-91277266D01*
X121495550Y-91325911D01*
X121495549Y-91325912D01*
X121495548Y-91325912D01*
X121414656Y-91359419D01*
X121328781Y-91376500D01*
X121241219Y-91376500D01*
X121155344Y-91359419D01*
X121074452Y-91325912D01*
X121074451Y-91325912D01*
X121074450Y-91325911D01*
X121001648Y-91277266D01*
X120939734Y-91215352D01*
X120891089Y-91142550D01*
X120874912Y-91103495D01*
X120857581Y-91061656D01*
X120840500Y-90975781D01*
X120840500Y-90888219D01*
X120857581Y-90802344D01*
X120891088Y-90721452D01*
X120939734Y-90648648D01*
X121001648Y-90586734D01*
X121074450Y-90538089D01*
X121074452Y-90538088D01*
X121155344Y-90504581D01*
X121241219Y-90487500D01*
X121328781Y-90487500D01*
X121414656Y-90504581D01*
X121414656Y-90504581D01*
G37*
G36*
X113189408Y-90153501D02*
G01*
X113288863Y-90194697D01*
X113288865Y-90194698D01*
X113333923Y-90224805D01*
X113378372Y-90254505D01*
X113454495Y-90330628D01*
X113514303Y-90420137D01*
X113555499Y-90519592D01*
X113576500Y-90625173D01*
X113576500Y-90732827D01*
X113555499Y-90838408D01*
X113514303Y-90937863D01*
X113459087Y-91020500D01*
X113454494Y-91027373D01*
X113378373Y-91103494D01*
X113288865Y-91163302D01*
X113288864Y-91163303D01*
X113288863Y-91163303D01*
X113189408Y-91204499D01*
X113083827Y-91225500D01*
X112976173Y-91225500D01*
X112870592Y-91204499D01*
X112771137Y-91163303D01*
X112771136Y-91163303D01*
X112771135Y-91163302D01*
X112681627Y-91103494D01*
X112605506Y-91027373D01*
X112600914Y-91020500D01*
X112545697Y-90937863D01*
X112504501Y-90838408D01*
X112483500Y-90732827D01*
X112483500Y-90625173D01*
X112504501Y-90519592D01*
X112545697Y-90420137D01*
X112605505Y-90330628D01*
X112681628Y-90254505D01*
X112726077Y-90224805D01*
X112771135Y-90194698D01*
X112771137Y-90194697D01*
X112870592Y-90153501D01*
X112976173Y-90132500D01*
X113083827Y-90132500D01*
X113189408Y-90153501D01*
X113189408Y-90153501D01*
G37*
G36*
X129064408Y-90026501D02*
G01*
X129163863Y-90067697D01*
X129163865Y-90067698D01*
X129208923Y-90097805D01*
X129253372Y-90127505D01*
X129329495Y-90203628D01*
X129389303Y-90293137D01*
X129430499Y-90392592D01*
X129451500Y-90498173D01*
X129451500Y-90605827D01*
X129430499Y-90711408D01*
X129389303Y-90810863D01*
X129389302Y-90810865D01*
X129329494Y-90900373D01*
X129253373Y-90976494D01*
X129163865Y-91036302D01*
X129163864Y-91036303D01*
X129163863Y-91036303D01*
X129064408Y-91077499D01*
X128958827Y-91098500D01*
X128851173Y-91098500D01*
X128745592Y-91077499D01*
X128646137Y-91036303D01*
X128646136Y-91036303D01*
X128646135Y-91036302D01*
X128556627Y-90976494D01*
X128480506Y-90900373D01*
X128420698Y-90810865D01*
X128420697Y-90810863D01*
X128379501Y-90711408D01*
X128358500Y-90605827D01*
X128358500Y-90498173D01*
X128379501Y-90392592D01*
X128420697Y-90293137D01*
X128480505Y-90203628D01*
X128556628Y-90127505D01*
X128601077Y-90097805D01*
X128646135Y-90067698D01*
X128646137Y-90067697D01*
X128745592Y-90026501D01*
X128851173Y-90005500D01*
X128958827Y-90005500D01*
X129064408Y-90026501D01*
X129064408Y-90026501D01*
G37*
G36*
X111366609Y-87939346D02*
G01*
X111486242Y-87963143D01*
X111711626Y-88056500D01*
X111914466Y-88192033D01*
X112086967Y-88364534D01*
X112222500Y-88567374D01*
X112315857Y-88792758D01*
X112363450Y-89032023D01*
X112363450Y-89275977D01*
X112315857Y-89515242D01*
X112222500Y-89740626D01*
X112086967Y-89943466D01*
X111914466Y-90115967D01*
X111711626Y-90251500D01*
X111711625Y-90251501D01*
X111711624Y-90251501D01*
X111704369Y-90254506D01*
X111486242Y-90344857D01*
X111366610Y-90368653D01*
X111246978Y-90392450D01*
X111003022Y-90392450D01*
X110883390Y-90368653D01*
X110763758Y-90344857D01*
X110545631Y-90254506D01*
X110538376Y-90251501D01*
X110538375Y-90251501D01*
X110538374Y-90251500D01*
X110335534Y-90115967D01*
X110163033Y-89943466D01*
X110027500Y-89740626D01*
X109934143Y-89515242D01*
X109886550Y-89275977D01*
X109886550Y-89032023D01*
X109934143Y-88792758D01*
X110027500Y-88567374D01*
X110163033Y-88364534D01*
X110335534Y-88192033D01*
X110538374Y-88056500D01*
X110763758Y-87963143D01*
X110883391Y-87939346D01*
X111003022Y-87915550D01*
X111246978Y-87915550D01*
X111366609Y-87939346D01*
X111366609Y-87939346D01*
G37*
G36*
X103111609Y-87939346D02*
G01*
X103231242Y-87963143D01*
X103456626Y-88056500D01*
X103659466Y-88192033D01*
X103831967Y-88364534D01*
X103967500Y-88567374D01*
X104060857Y-88792758D01*
X104108450Y-89032023D01*
X104108450Y-89275977D01*
X104060857Y-89515242D01*
X103967500Y-89740626D01*
X103831967Y-89943466D01*
X103659466Y-90115967D01*
X103456626Y-90251500D01*
X103456625Y-90251501D01*
X103456624Y-90251501D01*
X103449369Y-90254506D01*
X103231242Y-90344857D01*
X103111610Y-90368653D01*
X102991978Y-90392450D01*
X102748022Y-90392450D01*
X102628390Y-90368653D01*
X102508758Y-90344857D01*
X102290631Y-90254506D01*
X102283376Y-90251501D01*
X102283375Y-90251501D01*
X102283374Y-90251500D01*
X102080534Y-90115967D01*
X101908033Y-89943466D01*
X101772500Y-89740626D01*
X101679143Y-89515242D01*
X101631550Y-89275977D01*
X101631550Y-89032023D01*
X101679143Y-88792758D01*
X101772500Y-88567374D01*
X101908033Y-88364534D01*
X102080534Y-88192033D01*
X102283374Y-88056500D01*
X102508758Y-87963143D01*
X102628391Y-87939346D01*
X102748022Y-87915550D01*
X102991978Y-87915550D01*
X103111609Y-87939346D01*
X103111609Y-87939346D01*
G37*
G36*
X103111609Y-80700346D02*
G01*
X103231242Y-80724143D01*
X103265596Y-80738373D01*
X103449372Y-80814495D01*
X103456626Y-80817500D01*
X103659466Y-80953033D01*
X103831967Y-81125534D01*
X103967500Y-81328374D01*
X104060857Y-81553758D01*
X104108450Y-81793023D01*
X104108450Y-82036977D01*
X104060857Y-82276242D01*
X103967500Y-82501626D01*
X103831967Y-82704466D01*
X103659466Y-82876967D01*
X103456626Y-83012500D01*
X103231242Y-83105857D01*
X103111609Y-83129654D01*
X102991978Y-83153450D01*
X102748022Y-83153450D01*
X102628391Y-83129654D01*
X102508758Y-83105857D01*
X102283374Y-83012500D01*
X102080534Y-82876967D01*
X101908033Y-82704466D01*
X101772500Y-82501626D01*
X101679143Y-82276242D01*
X101631550Y-82036977D01*
X101631550Y-81793023D01*
X101679143Y-81553758D01*
X101772500Y-81328374D01*
X101908033Y-81125534D01*
X102080534Y-80953033D01*
X102283374Y-80817500D01*
X102290629Y-80814495D01*
X102474404Y-80738373D01*
X102508758Y-80724143D01*
X102628391Y-80700346D01*
X102748022Y-80676550D01*
X102991978Y-80676550D01*
X103111609Y-80700346D01*
X103111609Y-80700346D01*
G37*
G36*
X108826609Y-80700346D02*
G01*
X108946242Y-80724143D01*
X108980596Y-80738373D01*
X109164372Y-80814495D01*
X109171626Y-80817500D01*
X109374466Y-80953033D01*
X109546967Y-81125534D01*
X109682500Y-81328374D01*
X109775857Y-81553758D01*
X109823450Y-81793023D01*
X109823450Y-82036977D01*
X109775857Y-82276242D01*
X109682500Y-82501626D01*
X109546967Y-82704466D01*
X109374466Y-82876967D01*
X109171626Y-83012500D01*
X108946242Y-83105857D01*
X108826609Y-83129654D01*
X108706978Y-83153450D01*
X108463022Y-83153450D01*
X108343391Y-83129654D01*
X108223758Y-83105857D01*
X107998374Y-83012500D01*
X107795534Y-82876967D01*
X107623033Y-82704466D01*
X107487500Y-82501626D01*
X107394143Y-82276242D01*
X107346550Y-82036977D01*
X107346550Y-81793023D01*
X107394143Y-81553758D01*
X107487500Y-81328374D01*
X107623033Y-81125534D01*
X107795534Y-80953033D01*
X107998374Y-80817500D01*
X108005629Y-80814495D01*
X108189404Y-80738373D01*
X108223758Y-80724143D01*
X108343391Y-80700346D01*
X108463022Y-80676550D01*
X108706978Y-80676550D01*
X108826609Y-80700346D01*
X108826609Y-80700346D01*
G37*
G36*
X127032408Y-79991501D02*
G01*
X127131863Y-80032697D01*
X127131865Y-80032698D01*
X127176923Y-80062805D01*
X127221372Y-80092505D01*
X127297495Y-80168628D01*
X127357303Y-80258137D01*
X127398499Y-80357592D01*
X127419500Y-80463173D01*
X127419500Y-80570827D01*
X127398499Y-80676408D01*
X127378726Y-80724143D01*
X127357302Y-80775865D01*
X127297494Y-80865373D01*
X127221373Y-80941494D01*
X127131865Y-81001302D01*
X127131864Y-81001303D01*
X127131863Y-81001303D01*
X127032408Y-81042499D01*
X126926827Y-81063500D01*
X126819173Y-81063500D01*
X126713592Y-81042499D01*
X126614137Y-81001303D01*
X126614136Y-81001303D01*
X126614135Y-81001302D01*
X126524627Y-80941494D01*
X126448506Y-80865373D01*
X126388698Y-80775865D01*
X126367274Y-80724143D01*
X126347501Y-80676408D01*
X126326500Y-80570827D01*
X126326500Y-80463173D01*
X126347501Y-80357592D01*
X126388697Y-80258137D01*
X126448505Y-80168628D01*
X126524628Y-80092505D01*
X126569077Y-80062805D01*
X126614135Y-80032698D01*
X126614137Y-80032697D01*
X126713592Y-79991501D01*
X126819173Y-79970500D01*
X126926827Y-79970500D01*
X127032408Y-79991501D01*
X127032408Y-79991501D01*
G37*
G36*
X110649408Y-79864501D02*
G01*
X110748863Y-79905697D01*
X110748865Y-79905698D01*
X110793923Y-79935805D01*
X110838372Y-79965505D01*
X110914495Y-80041628D01*
X110974303Y-80131137D01*
X111015499Y-80230592D01*
X111036500Y-80336173D01*
X111036500Y-80443827D01*
X111015499Y-80549408D01*
X110974303Y-80648863D01*
X110914495Y-80738372D01*
X110838372Y-80814495D01*
X110793923Y-80844195D01*
X110748865Y-80874302D01*
X110748864Y-80874303D01*
X110748863Y-80874303D01*
X110649408Y-80915499D01*
X110543827Y-80936500D01*
X110436173Y-80936500D01*
X110330592Y-80915499D01*
X110231137Y-80874303D01*
X110231136Y-80874303D01*
X110231135Y-80874302D01*
X110186077Y-80844195D01*
X110141628Y-80814495D01*
X110065505Y-80738372D01*
X110005697Y-80648863D01*
X109964501Y-80549408D01*
X109943500Y-80443827D01*
X109943500Y-80336173D01*
X109964501Y-80230592D01*
X110005697Y-80131137D01*
X110065505Y-80041628D01*
X110141628Y-79965505D01*
X110186077Y-79935805D01*
X110231135Y-79905698D01*
X110231137Y-79905697D01*
X110330592Y-79864501D01*
X110436173Y-79843500D01*
X110543827Y-79843500D01*
X110649408Y-79864501D01*
X110649408Y-79864501D01*
G37*
G36*
X120652656Y-79709581D02*
G01*
X120733548Y-79743088D01*
X120733550Y-79743089D01*
X120806352Y-79791734D01*
X120868266Y-79853648D01*
X120916912Y-79926452D01*
X120950419Y-80007344D01*
X120967500Y-80093219D01*
X120967500Y-80180781D01*
X120950419Y-80266656D01*
X120921623Y-80336174D01*
X120916911Y-80347550D01*
X120868266Y-80420352D01*
X120806352Y-80482266D01*
X120733550Y-80530911D01*
X120733549Y-80530912D01*
X120733548Y-80530912D01*
X120652656Y-80564419D01*
X120566781Y-80581500D01*
X120479219Y-80581500D01*
X120393344Y-80564419D01*
X120312452Y-80530912D01*
X120312451Y-80530912D01*
X120312450Y-80530911D01*
X120239648Y-80482266D01*
X120177734Y-80420352D01*
X120129089Y-80347550D01*
X120124377Y-80336174D01*
X120095581Y-80266656D01*
X120078500Y-80180781D01*
X120078500Y-80093219D01*
X120095581Y-80007344D01*
X120129088Y-79926452D01*
X120177734Y-79853648D01*
X120239648Y-79791734D01*
X120312450Y-79743089D01*
X120312452Y-79743088D01*
X120393344Y-79709581D01*
X120479219Y-79692500D01*
X120566781Y-79692500D01*
X120652656Y-79709581D01*
X120652656Y-79709581D01*
G37*
G36*
X121922656Y-79709581D02*
G01*
X122003548Y-79743088D01*
X122003550Y-79743089D01*
X122076352Y-79791734D01*
X122138266Y-79853648D01*
X122186912Y-79926452D01*
X122220419Y-80007344D01*
X122237500Y-80093219D01*
X122237500Y-80180781D01*
X122220419Y-80266656D01*
X122191623Y-80336174D01*
X122186911Y-80347550D01*
X122138266Y-80420352D01*
X122076352Y-80482266D01*
X122003550Y-80530911D01*
X122003549Y-80530912D01*
X122003548Y-80530912D01*
X121922656Y-80564419D01*
X121836781Y-80581500D01*
X121749219Y-80581500D01*
X121663344Y-80564419D01*
X121582452Y-80530912D01*
X121582451Y-80530912D01*
X121582450Y-80530911D01*
X121509648Y-80482266D01*
X121447734Y-80420352D01*
X121399089Y-80347550D01*
X121394377Y-80336174D01*
X121365581Y-80266656D01*
X121348500Y-80180781D01*
X121348500Y-80093219D01*
X121365581Y-80007344D01*
X121399088Y-79926452D01*
X121447734Y-79853648D01*
X121509648Y-79791734D01*
X121582450Y-79743089D01*
X121582452Y-79743088D01*
X121663344Y-79709581D01*
X121749219Y-79692500D01*
X121836781Y-79692500D01*
X121922656Y-79709581D01*
X121922656Y-79709581D01*
G37*
G36*
X123192656Y-79709581D02*
G01*
X123273548Y-79743088D01*
X123273550Y-79743089D01*
X123346352Y-79791734D01*
X123408266Y-79853648D01*
X123456912Y-79926452D01*
X123490419Y-80007344D01*
X123507500Y-80093219D01*
X123507500Y-80180781D01*
X123490419Y-80266656D01*
X123461623Y-80336174D01*
X123456911Y-80347550D01*
X123408266Y-80420352D01*
X123346352Y-80482266D01*
X123273550Y-80530911D01*
X123273549Y-80530912D01*
X123273548Y-80530912D01*
X123192656Y-80564419D01*
X123106781Y-80581500D01*
X123019219Y-80581500D01*
X122933344Y-80564419D01*
X122852452Y-80530912D01*
X122852451Y-80530912D01*
X122852450Y-80530911D01*
X122779648Y-80482266D01*
X122717734Y-80420352D01*
X122669089Y-80347550D01*
X122664377Y-80336174D01*
X122635581Y-80266656D01*
X122618500Y-80180781D01*
X122618500Y-80093219D01*
X122635581Y-80007344D01*
X122669088Y-79926452D01*
X122717734Y-79853648D01*
X122779648Y-79791734D01*
X122852450Y-79743089D01*
X122852452Y-79743088D01*
X122933344Y-79709581D01*
X123019219Y-79692500D01*
X123106781Y-79692500D01*
X123192656Y-79709581D01*
X123192656Y-79709581D01*
G37*
G36*
X124462656Y-79709581D02*
G01*
X124543548Y-79743088D01*
X124543550Y-79743089D01*
X124616352Y-79791734D01*
X124678266Y-79853648D01*
X124726912Y-79926452D01*
X124760419Y-80007344D01*
X124777500Y-80093219D01*
X124777500Y-80180781D01*
X124760419Y-80266656D01*
X124731623Y-80336174D01*
X124726911Y-80347550D01*
X124678266Y-80420352D01*
X124616352Y-80482266D01*
X124543550Y-80530911D01*
X124543549Y-80530912D01*
X124543548Y-80530912D01*
X124462656Y-80564419D01*
X124376781Y-80581500D01*
X124289219Y-80581500D01*
X124203344Y-80564419D01*
X124122452Y-80530912D01*
X124122451Y-80530912D01*
X124122450Y-80530911D01*
X124049648Y-80482266D01*
X123987734Y-80420352D01*
X123939089Y-80347550D01*
X123934377Y-80336174D01*
X123905581Y-80266656D01*
X123888500Y-80180781D01*
X123888500Y-80093219D01*
X123905581Y-80007344D01*
X123939088Y-79926452D01*
X123987734Y-79853648D01*
X124049648Y-79791734D01*
X124122450Y-79743089D01*
X124122452Y-79743088D01*
X124203344Y-79709581D01*
X124289219Y-79692500D01*
X124376781Y-79692500D01*
X124462656Y-79709581D01*
X124462656Y-79709581D01*
G37*
G36*
X125732656Y-79709581D02*
G01*
X125813548Y-79743088D01*
X125813550Y-79743089D01*
X125886352Y-79791734D01*
X125948266Y-79853648D01*
X125996912Y-79926452D01*
X126030419Y-80007344D01*
X126047500Y-80093219D01*
X126047500Y-80180781D01*
X126030419Y-80266656D01*
X126001623Y-80336174D01*
X125996911Y-80347550D01*
X125948266Y-80420352D01*
X125886352Y-80482266D01*
X125813550Y-80530911D01*
X125813549Y-80530912D01*
X125813548Y-80530912D01*
X125732656Y-80564419D01*
X125646781Y-80581500D01*
X125559219Y-80581500D01*
X125473344Y-80564419D01*
X125392452Y-80530912D01*
X125392451Y-80530912D01*
X125392450Y-80530911D01*
X125319648Y-80482266D01*
X125257734Y-80420352D01*
X125209089Y-80347550D01*
X125204377Y-80336174D01*
X125175581Y-80266656D01*
X125158500Y-80180781D01*
X125158500Y-80093219D01*
X125175581Y-80007344D01*
X125209088Y-79926452D01*
X125257734Y-79853648D01*
X125319648Y-79791734D01*
X125392450Y-79743089D01*
X125392452Y-79743088D01*
X125473344Y-79709581D01*
X125559219Y-79692500D01*
X125646781Y-79692500D01*
X125732656Y-79709581D01*
X125732656Y-79709581D01*
G37*
G36*
X109349656Y-79582581D02*
G01*
X109430548Y-79616088D01*
X109430550Y-79616089D01*
X109498374Y-79661408D01*
X109503352Y-79664734D01*
X109565266Y-79726648D01*
X109613912Y-79799452D01*
X109647419Y-79880344D01*
X109664500Y-79966219D01*
X109664500Y-80053781D01*
X109647419Y-80139656D01*
X109630384Y-80180781D01*
X109613911Y-80220550D01*
X109565266Y-80293352D01*
X109503352Y-80355266D01*
X109430550Y-80403911D01*
X109430549Y-80403912D01*
X109430548Y-80403912D01*
X109349656Y-80437419D01*
X109263781Y-80454500D01*
X109176219Y-80454500D01*
X109090344Y-80437419D01*
X109009452Y-80403912D01*
X109009451Y-80403912D01*
X109009450Y-80403911D01*
X108936648Y-80355266D01*
X108874734Y-80293352D01*
X108826089Y-80220550D01*
X108809616Y-80180781D01*
X108792581Y-80139656D01*
X108775500Y-80053781D01*
X108775500Y-79966219D01*
X108792581Y-79880344D01*
X108826088Y-79799452D01*
X108874734Y-79726648D01*
X108936648Y-79664734D01*
X108941626Y-79661408D01*
X109009450Y-79616089D01*
X109009452Y-79616088D01*
X109090344Y-79582581D01*
X109176219Y-79565500D01*
X109263781Y-79565500D01*
X109349656Y-79582581D01*
X109349656Y-79582581D01*
G37*
G36*
X108079656Y-79582581D02*
G01*
X108160548Y-79616088D01*
X108160550Y-79616089D01*
X108228374Y-79661408D01*
X108233352Y-79664734D01*
X108295266Y-79726648D01*
X108343912Y-79799452D01*
X108377419Y-79880344D01*
X108394500Y-79966219D01*
X108394500Y-80053781D01*
X108377419Y-80139656D01*
X108360384Y-80180781D01*
X108343911Y-80220550D01*
X108295266Y-80293352D01*
X108233352Y-80355266D01*
X108160550Y-80403911D01*
X108160549Y-80403912D01*
X108160548Y-80403912D01*
X108079656Y-80437419D01*
X107993781Y-80454500D01*
X107906219Y-80454500D01*
X107820344Y-80437419D01*
X107739452Y-80403912D01*
X107739451Y-80403912D01*
X107739450Y-80403911D01*
X107666648Y-80355266D01*
X107604734Y-80293352D01*
X107556089Y-80220550D01*
X107539616Y-80180781D01*
X107522581Y-80139656D01*
X107505500Y-80053781D01*
X107505500Y-79966219D01*
X107522581Y-79880344D01*
X107556088Y-79799452D01*
X107604734Y-79726648D01*
X107666648Y-79664734D01*
X107671626Y-79661408D01*
X107739450Y-79616089D01*
X107739452Y-79616088D01*
X107820344Y-79582581D01*
X107906219Y-79565500D01*
X107993781Y-79565500D01*
X108079656Y-79582581D01*
X108079656Y-79582581D01*
G37*
G36*
X106809656Y-79582581D02*
G01*
X106890548Y-79616088D01*
X106890550Y-79616089D01*
X106958374Y-79661408D01*
X106963352Y-79664734D01*
X107025266Y-79726648D01*
X107073912Y-79799452D01*
X107107419Y-79880344D01*
X107124500Y-79966219D01*
X107124500Y-80053781D01*
X107107419Y-80139656D01*
X107090384Y-80180781D01*
X107073911Y-80220550D01*
X107025266Y-80293352D01*
X106963352Y-80355266D01*
X106890550Y-80403911D01*
X106890549Y-80403912D01*
X106890548Y-80403912D01*
X106809656Y-80437419D01*
X106723781Y-80454500D01*
X106636219Y-80454500D01*
X106550344Y-80437419D01*
X106469452Y-80403912D01*
X106469451Y-80403912D01*
X106469450Y-80403911D01*
X106396648Y-80355266D01*
X106334734Y-80293352D01*
X106286089Y-80220550D01*
X106269616Y-80180781D01*
X106252581Y-80139656D01*
X106235500Y-80053781D01*
X106235500Y-79966219D01*
X106252581Y-79880344D01*
X106286088Y-79799452D01*
X106334734Y-79726648D01*
X106396648Y-79664734D01*
X106401626Y-79661408D01*
X106469450Y-79616089D01*
X106469452Y-79616088D01*
X106550344Y-79582581D01*
X106636219Y-79565500D01*
X106723781Y-79565500D01*
X106809656Y-79582581D01*
X106809656Y-79582581D01*
G37*
G36*
X105539656Y-79582581D02*
G01*
X105620548Y-79616088D01*
X105620550Y-79616089D01*
X105688374Y-79661408D01*
X105693352Y-79664734D01*
X105755266Y-79726648D01*
X105803912Y-79799452D01*
X105837419Y-79880344D01*
X105854500Y-79966219D01*
X105854500Y-80053781D01*
X105837419Y-80139656D01*
X105820384Y-80180781D01*
X105803911Y-80220550D01*
X105755266Y-80293352D01*
X105693352Y-80355266D01*
X105620550Y-80403911D01*
X105620549Y-80403912D01*
X105620548Y-80403912D01*
X105539656Y-80437419D01*
X105453781Y-80454500D01*
X105366219Y-80454500D01*
X105280344Y-80437419D01*
X105199452Y-80403912D01*
X105199451Y-80403912D01*
X105199450Y-80403911D01*
X105126648Y-80355266D01*
X105064734Y-80293352D01*
X105016089Y-80220550D01*
X104999616Y-80180781D01*
X104982581Y-80139656D01*
X104965500Y-80053781D01*
X104965500Y-79966219D01*
X104982581Y-79880344D01*
X105016088Y-79799452D01*
X105064734Y-79726648D01*
X105126648Y-79664734D01*
X105131626Y-79661408D01*
X105199450Y-79616089D01*
X105199452Y-79616088D01*
X105280344Y-79582581D01*
X105366219Y-79565500D01*
X105453781Y-79565500D01*
X105539656Y-79582581D01*
X105539656Y-79582581D01*
G37*
G36*
X104269656Y-79582581D02*
G01*
X104350548Y-79616088D01*
X104350550Y-79616089D01*
X104418374Y-79661408D01*
X104423352Y-79664734D01*
X104485266Y-79726648D01*
X104533912Y-79799452D01*
X104567419Y-79880344D01*
X104584500Y-79966219D01*
X104584500Y-80053781D01*
X104567419Y-80139656D01*
X104550384Y-80180781D01*
X104533911Y-80220550D01*
X104485266Y-80293352D01*
X104423352Y-80355266D01*
X104350550Y-80403911D01*
X104350549Y-80403912D01*
X104350548Y-80403912D01*
X104269656Y-80437419D01*
X104183781Y-80454500D01*
X104096219Y-80454500D01*
X104010344Y-80437419D01*
X103929452Y-80403912D01*
X103929451Y-80403912D01*
X103929450Y-80403911D01*
X103856648Y-80355266D01*
X103794734Y-80293352D01*
X103746089Y-80220550D01*
X103729616Y-80180781D01*
X103712581Y-80139656D01*
X103695500Y-80053781D01*
X103695500Y-79966219D01*
X103712581Y-79880344D01*
X103746088Y-79799452D01*
X103794734Y-79726648D01*
X103856648Y-79664734D01*
X103861626Y-79661408D01*
X103929450Y-79616089D01*
X103929452Y-79616088D01*
X104010344Y-79582581D01*
X104096219Y-79565500D01*
X104183781Y-79565500D01*
X104269656Y-79582581D01*
X104269656Y-79582581D01*
G37*
G36*
X119412408Y-78976501D02*
G01*
X119511863Y-79017697D01*
X119511865Y-79017698D01*
X119535514Y-79033500D01*
X119601372Y-79077505D01*
X119677495Y-79153628D01*
X119737303Y-79243137D01*
X119778499Y-79342592D01*
X119799500Y-79448173D01*
X119799500Y-79555827D01*
X119778499Y-79661408D01*
X119737303Y-79760863D01*
X119682087Y-79843500D01*
X119677494Y-79850373D01*
X119601373Y-79926494D01*
X119511865Y-79986302D01*
X119511864Y-79986303D01*
X119511863Y-79986303D01*
X119412408Y-80027499D01*
X119306827Y-80048500D01*
X119199173Y-80048500D01*
X119093592Y-80027499D01*
X118994137Y-79986303D01*
X118994136Y-79986303D01*
X118994135Y-79986302D01*
X118904627Y-79926494D01*
X118828506Y-79850373D01*
X118823914Y-79843500D01*
X118768697Y-79760863D01*
X118727501Y-79661408D01*
X118706500Y-79555827D01*
X118706500Y-79448173D01*
X118727501Y-79342592D01*
X118768697Y-79243137D01*
X118828505Y-79153628D01*
X118904628Y-79077505D01*
X118970486Y-79033500D01*
X118994135Y-79017698D01*
X118994137Y-79017697D01*
X119093592Y-78976501D01*
X119199173Y-78955500D01*
X119306827Y-78955500D01*
X119412408Y-78976501D01*
X119412408Y-78976501D01*
G37*
G36*
X103029408Y-78849501D02*
G01*
X103128863Y-78890697D01*
X103128865Y-78890698D01*
X103173923Y-78920805D01*
X103218372Y-78950505D01*
X103294495Y-79026628D01*
X103354303Y-79116137D01*
X103395499Y-79215592D01*
X103416500Y-79321173D01*
X103416500Y-79428827D01*
X103395499Y-79534408D01*
X103361665Y-79616089D01*
X103354302Y-79633865D01*
X103294494Y-79723373D01*
X103218373Y-79799494D01*
X103128865Y-79859302D01*
X103128864Y-79859303D01*
X103128863Y-79859303D01*
X103029408Y-79900499D01*
X102923827Y-79921500D01*
X102816173Y-79921500D01*
X102710592Y-79900499D01*
X102611137Y-79859303D01*
X102611136Y-79859303D01*
X102611135Y-79859302D01*
X102521627Y-79799494D01*
X102445506Y-79723373D01*
X102385698Y-79633865D01*
X102378335Y-79616089D01*
X102344501Y-79534408D01*
X102323500Y-79428827D01*
X102323500Y-79321173D01*
X102344501Y-79215592D01*
X102385697Y-79116137D01*
X102445505Y-79026628D01*
X102521628Y-78950505D01*
X102566077Y-78920805D01*
X102611135Y-78890698D01*
X102611137Y-78890697D01*
X102710592Y-78849501D01*
X102816173Y-78828500D01*
X102923827Y-78828500D01*
X103029408Y-78849501D01*
X103029408Y-78849501D01*
G37*
G36*
X125732656Y-78439581D02*
G01*
X125813548Y-78473088D01*
X125813550Y-78473089D01*
X125882871Y-78519408D01*
X125886352Y-78521734D01*
X125948266Y-78583648D01*
X125996912Y-78656452D01*
X126030419Y-78737344D01*
X126047500Y-78823219D01*
X126047500Y-78910781D01*
X126030419Y-78996656D01*
X125996930Y-79077505D01*
X125996911Y-79077550D01*
X125948266Y-79150352D01*
X125886352Y-79212266D01*
X125813550Y-79260911D01*
X125813549Y-79260912D01*
X125813548Y-79260912D01*
X125732656Y-79294419D01*
X125646781Y-79311500D01*
X125559219Y-79311500D01*
X125473344Y-79294419D01*
X125392452Y-79260912D01*
X125392451Y-79260912D01*
X125392450Y-79260911D01*
X125319648Y-79212266D01*
X125257734Y-79150352D01*
X125209089Y-79077550D01*
X125209070Y-79077505D01*
X125175581Y-78996656D01*
X125158500Y-78910781D01*
X125158500Y-78823219D01*
X125175581Y-78737344D01*
X125209088Y-78656452D01*
X125257734Y-78583648D01*
X125319648Y-78521734D01*
X125323129Y-78519408D01*
X125392450Y-78473089D01*
X125392452Y-78473088D01*
X125473344Y-78439581D01*
X125559219Y-78422500D01*
X125646781Y-78422500D01*
X125732656Y-78439581D01*
X125732656Y-78439581D01*
G37*
G36*
X124462656Y-78439581D02*
G01*
X124543548Y-78473088D01*
X124543550Y-78473089D01*
X124612871Y-78519408D01*
X124616352Y-78521734D01*
X124678266Y-78583648D01*
X124726912Y-78656452D01*
X124760419Y-78737344D01*
X124777500Y-78823219D01*
X124777500Y-78910781D01*
X124760419Y-78996656D01*
X124726930Y-79077505D01*
X124726911Y-79077550D01*
X124678266Y-79150352D01*
X124616352Y-79212266D01*
X124543550Y-79260911D01*
X124543549Y-79260912D01*
X124543548Y-79260912D01*
X124462656Y-79294419D01*
X124376781Y-79311500D01*
X124289219Y-79311500D01*
X124203344Y-79294419D01*
X124122452Y-79260912D01*
X124122451Y-79260912D01*
X124122450Y-79260911D01*
X124049648Y-79212266D01*
X123987734Y-79150352D01*
X123939089Y-79077550D01*
X123939070Y-79077505D01*
X123905581Y-78996656D01*
X123888500Y-78910781D01*
X123888500Y-78823219D01*
X123905581Y-78737344D01*
X123939088Y-78656452D01*
X123987734Y-78583648D01*
X124049648Y-78521734D01*
X124053129Y-78519408D01*
X124122450Y-78473089D01*
X124122452Y-78473088D01*
X124203344Y-78439581D01*
X124289219Y-78422500D01*
X124376781Y-78422500D01*
X124462656Y-78439581D01*
X124462656Y-78439581D01*
G37*
G36*
X123192656Y-78439581D02*
G01*
X123273548Y-78473088D01*
X123273550Y-78473089D01*
X123342871Y-78519408D01*
X123346352Y-78521734D01*
X123408266Y-78583648D01*
X123456912Y-78656452D01*
X123490419Y-78737344D01*
X123507500Y-78823219D01*
X123507500Y-78910781D01*
X123490419Y-78996656D01*
X123456930Y-79077505D01*
X123456911Y-79077550D01*
X123408266Y-79150352D01*
X123346352Y-79212266D01*
X123273550Y-79260911D01*
X123273549Y-79260912D01*
X123273548Y-79260912D01*
X123192656Y-79294419D01*
X123106781Y-79311500D01*
X123019219Y-79311500D01*
X122933344Y-79294419D01*
X122852452Y-79260912D01*
X122852451Y-79260912D01*
X122852450Y-79260911D01*
X122779648Y-79212266D01*
X122717734Y-79150352D01*
X122669089Y-79077550D01*
X122669070Y-79077505D01*
X122635581Y-78996656D01*
X122618500Y-78910781D01*
X122618500Y-78823219D01*
X122635581Y-78737344D01*
X122669088Y-78656452D01*
X122717734Y-78583648D01*
X122779648Y-78521734D01*
X122783129Y-78519408D01*
X122852450Y-78473089D01*
X122852452Y-78473088D01*
X122933344Y-78439581D01*
X123019219Y-78422500D01*
X123106781Y-78422500D01*
X123192656Y-78439581D01*
X123192656Y-78439581D01*
G37*
G36*
X121922656Y-78439581D02*
G01*
X122003548Y-78473088D01*
X122003550Y-78473089D01*
X122072871Y-78519408D01*
X122076352Y-78521734D01*
X122138266Y-78583648D01*
X122186912Y-78656452D01*
X122220419Y-78737344D01*
X122237500Y-78823219D01*
X122237500Y-78910781D01*
X122220419Y-78996656D01*
X122186930Y-79077505D01*
X122186911Y-79077550D01*
X122138266Y-79150352D01*
X122076352Y-79212266D01*
X122003550Y-79260911D01*
X122003549Y-79260912D01*
X122003548Y-79260912D01*
X121922656Y-79294419D01*
X121836781Y-79311500D01*
X121749219Y-79311500D01*
X121663344Y-79294419D01*
X121582452Y-79260912D01*
X121582451Y-79260912D01*
X121582450Y-79260911D01*
X121509648Y-79212266D01*
X121447734Y-79150352D01*
X121399089Y-79077550D01*
X121399070Y-79077505D01*
X121365581Y-78996656D01*
X121348500Y-78910781D01*
X121348500Y-78823219D01*
X121365581Y-78737344D01*
X121399088Y-78656452D01*
X121447734Y-78583648D01*
X121509648Y-78521734D01*
X121513129Y-78519408D01*
X121582450Y-78473089D01*
X121582452Y-78473088D01*
X121663344Y-78439581D01*
X121749219Y-78422500D01*
X121836781Y-78422500D01*
X121922656Y-78439581D01*
X121922656Y-78439581D01*
G37*
G36*
X120652656Y-78439581D02*
G01*
X120733548Y-78473088D01*
X120733550Y-78473089D01*
X120802871Y-78519408D01*
X120806352Y-78521734D01*
X120868266Y-78583648D01*
X120916912Y-78656452D01*
X120950419Y-78737344D01*
X120967500Y-78823219D01*
X120967500Y-78910781D01*
X120950419Y-78996656D01*
X120916930Y-79077505D01*
X120916911Y-79077550D01*
X120868266Y-79150352D01*
X120806352Y-79212266D01*
X120733550Y-79260911D01*
X120733549Y-79260912D01*
X120733548Y-79260912D01*
X120652656Y-79294419D01*
X120566781Y-79311500D01*
X120479219Y-79311500D01*
X120393344Y-79294419D01*
X120312452Y-79260912D01*
X120312451Y-79260912D01*
X120312450Y-79260911D01*
X120239648Y-79212266D01*
X120177734Y-79150352D01*
X120129089Y-79077550D01*
X120129070Y-79077505D01*
X120095581Y-78996656D01*
X120078500Y-78910781D01*
X120078500Y-78823219D01*
X120095581Y-78737344D01*
X120129088Y-78656452D01*
X120177734Y-78583648D01*
X120239648Y-78521734D01*
X120243129Y-78519408D01*
X120312450Y-78473089D01*
X120312452Y-78473088D01*
X120393344Y-78439581D01*
X120479219Y-78422500D01*
X120566781Y-78422500D01*
X120652656Y-78439581D01*
X120652656Y-78439581D01*
G37*
G36*
X105539656Y-78312581D02*
G01*
X105620548Y-78346088D01*
X105620550Y-78346089D01*
X105693352Y-78394734D01*
X105755266Y-78456648D01*
X105803912Y-78529452D01*
X105837419Y-78610344D01*
X105854500Y-78696219D01*
X105854500Y-78783781D01*
X105837419Y-78869656D01*
X105820088Y-78911495D01*
X105803911Y-78950550D01*
X105755266Y-79023352D01*
X105693352Y-79085266D01*
X105620550Y-79133911D01*
X105620549Y-79133912D01*
X105620548Y-79133912D01*
X105539656Y-79167419D01*
X105453781Y-79184500D01*
X105366219Y-79184500D01*
X105280344Y-79167419D01*
X105199452Y-79133912D01*
X105199451Y-79133912D01*
X105199450Y-79133911D01*
X105126648Y-79085266D01*
X105064734Y-79023352D01*
X105016089Y-78950550D01*
X104999912Y-78911495D01*
X104982581Y-78869656D01*
X104965500Y-78783781D01*
X104965500Y-78696219D01*
X104982581Y-78610344D01*
X105016088Y-78529452D01*
X105064734Y-78456648D01*
X105126648Y-78394734D01*
X105199450Y-78346089D01*
X105199452Y-78346088D01*
X105280344Y-78312581D01*
X105366219Y-78295500D01*
X105453781Y-78295500D01*
X105539656Y-78312581D01*
X105539656Y-78312581D01*
G37*
G36*
X104269656Y-78312581D02*
G01*
X104350548Y-78346088D01*
X104350550Y-78346089D01*
X104423352Y-78394734D01*
X104485266Y-78456648D01*
X104533912Y-78529452D01*
X104567419Y-78610344D01*
X104584500Y-78696219D01*
X104584500Y-78783781D01*
X104567419Y-78869656D01*
X104550088Y-78911495D01*
X104533911Y-78950550D01*
X104485266Y-79023352D01*
X104423352Y-79085266D01*
X104350550Y-79133911D01*
X104350549Y-79133912D01*
X104350548Y-79133912D01*
X104269656Y-79167419D01*
X104183781Y-79184500D01*
X104096219Y-79184500D01*
X104010344Y-79167419D01*
X103929452Y-79133912D01*
X103929451Y-79133912D01*
X103929450Y-79133911D01*
X103856648Y-79085266D01*
X103794734Y-79023352D01*
X103746089Y-78950550D01*
X103729912Y-78911495D01*
X103712581Y-78869656D01*
X103695500Y-78783781D01*
X103695500Y-78696219D01*
X103712581Y-78610344D01*
X103746088Y-78529452D01*
X103794734Y-78456648D01*
X103856648Y-78394734D01*
X103929450Y-78346089D01*
X103929452Y-78346088D01*
X104010344Y-78312581D01*
X104096219Y-78295500D01*
X104183781Y-78295500D01*
X104269656Y-78312581D01*
X104269656Y-78312581D01*
G37*
G36*
X106809656Y-78312581D02*
G01*
X106890548Y-78346088D01*
X106890550Y-78346089D01*
X106963352Y-78394734D01*
X107025266Y-78456648D01*
X107073912Y-78529452D01*
X107107419Y-78610344D01*
X107124500Y-78696219D01*
X107124500Y-78783781D01*
X107107419Y-78869656D01*
X107090088Y-78911495D01*
X107073911Y-78950550D01*
X107025266Y-79023352D01*
X106963352Y-79085266D01*
X106890550Y-79133911D01*
X106890549Y-79133912D01*
X106890548Y-79133912D01*
X106809656Y-79167419D01*
X106723781Y-79184500D01*
X106636219Y-79184500D01*
X106550344Y-79167419D01*
X106469452Y-79133912D01*
X106469451Y-79133912D01*
X106469450Y-79133911D01*
X106396648Y-79085266D01*
X106334734Y-79023352D01*
X106286089Y-78950550D01*
X106269912Y-78911495D01*
X106252581Y-78869656D01*
X106235500Y-78783781D01*
X106235500Y-78696219D01*
X106252581Y-78610344D01*
X106286088Y-78529452D01*
X106334734Y-78456648D01*
X106396648Y-78394734D01*
X106469450Y-78346089D01*
X106469452Y-78346088D01*
X106550344Y-78312581D01*
X106636219Y-78295500D01*
X106723781Y-78295500D01*
X106809656Y-78312581D01*
X106809656Y-78312581D01*
G37*
G36*
X109349656Y-78312581D02*
G01*
X109430548Y-78346088D01*
X109430550Y-78346089D01*
X109503352Y-78394734D01*
X109565266Y-78456648D01*
X109613912Y-78529452D01*
X109647419Y-78610344D01*
X109664500Y-78696219D01*
X109664500Y-78783781D01*
X109647419Y-78869656D01*
X109630088Y-78911495D01*
X109613911Y-78950550D01*
X109565266Y-79023352D01*
X109503352Y-79085266D01*
X109430550Y-79133911D01*
X109430549Y-79133912D01*
X109430548Y-79133912D01*
X109349656Y-79167419D01*
X109263781Y-79184500D01*
X109176219Y-79184500D01*
X109090344Y-79167419D01*
X109009452Y-79133912D01*
X109009451Y-79133912D01*
X109009450Y-79133911D01*
X108936648Y-79085266D01*
X108874734Y-79023352D01*
X108826089Y-78950550D01*
X108809912Y-78911495D01*
X108792581Y-78869656D01*
X108775500Y-78783781D01*
X108775500Y-78696219D01*
X108792581Y-78610344D01*
X108826088Y-78529452D01*
X108874734Y-78456648D01*
X108936648Y-78394734D01*
X109009450Y-78346089D01*
X109009452Y-78346088D01*
X109090344Y-78312581D01*
X109176219Y-78295500D01*
X109263781Y-78295500D01*
X109349656Y-78312581D01*
X109349656Y-78312581D01*
G37*
G36*
X108079656Y-78312581D02*
G01*
X108160548Y-78346088D01*
X108160550Y-78346089D01*
X108233352Y-78394734D01*
X108295266Y-78456648D01*
X108343912Y-78529452D01*
X108377419Y-78610344D01*
X108394500Y-78696219D01*
X108394500Y-78783781D01*
X108377419Y-78869656D01*
X108360088Y-78911495D01*
X108343911Y-78950550D01*
X108295266Y-79023352D01*
X108233352Y-79085266D01*
X108160550Y-79133911D01*
X108160549Y-79133912D01*
X108160548Y-79133912D01*
X108079656Y-79167419D01*
X107993781Y-79184500D01*
X107906219Y-79184500D01*
X107820344Y-79167419D01*
X107739452Y-79133912D01*
X107739451Y-79133912D01*
X107739450Y-79133911D01*
X107666648Y-79085266D01*
X107604734Y-79023352D01*
X107556089Y-78950550D01*
X107539912Y-78911495D01*
X107522581Y-78869656D01*
X107505500Y-78783781D01*
X107505500Y-78696219D01*
X107522581Y-78610344D01*
X107556088Y-78529452D01*
X107604734Y-78456648D01*
X107666648Y-78394734D01*
X107739450Y-78346089D01*
X107739452Y-78346088D01*
X107820344Y-78312581D01*
X107906219Y-78295500D01*
X107993781Y-78295500D01*
X108079656Y-78312581D01*
X108079656Y-78312581D01*
G37*
G36*
X127032408Y-77961501D02*
G01*
X127131863Y-78002697D01*
X127131865Y-78002698D01*
X127176923Y-78032805D01*
X127221372Y-78062505D01*
X127297495Y-78138628D01*
X127357303Y-78228137D01*
X127398499Y-78327592D01*
X127419500Y-78433173D01*
X127419500Y-78540827D01*
X127398499Y-78646408D01*
X127357303Y-78745863D01*
X127302087Y-78828500D01*
X127297494Y-78835373D01*
X127221373Y-78911494D01*
X127131865Y-78971302D01*
X127131864Y-78971303D01*
X127131863Y-78971303D01*
X127032408Y-79012499D01*
X126926827Y-79033500D01*
X126819173Y-79033500D01*
X126713592Y-79012499D01*
X126614137Y-78971303D01*
X126614136Y-78971303D01*
X126614135Y-78971302D01*
X126524627Y-78911494D01*
X126448506Y-78835373D01*
X126443914Y-78828500D01*
X126388697Y-78745863D01*
X126347501Y-78646408D01*
X126326500Y-78540827D01*
X126326500Y-78433173D01*
X126347501Y-78327592D01*
X126388697Y-78228137D01*
X126448505Y-78138628D01*
X126524628Y-78062505D01*
X126569077Y-78032805D01*
X126614135Y-78002698D01*
X126614137Y-78002697D01*
X126713592Y-77961501D01*
X126819173Y-77940500D01*
X126926827Y-77940500D01*
X127032408Y-77961501D01*
X127032408Y-77961501D01*
G37*
G36*
X110649408Y-77834501D02*
G01*
X110748863Y-77875697D01*
X110748865Y-77875698D01*
X110793923Y-77905805D01*
X110838372Y-77935505D01*
X110914495Y-78011628D01*
X110974303Y-78101137D01*
X111015499Y-78200592D01*
X111036500Y-78306173D01*
X111036500Y-78413827D01*
X111015499Y-78519408D01*
X110974303Y-78618863D01*
X110974302Y-78618865D01*
X110914494Y-78708373D01*
X110838373Y-78784494D01*
X110748865Y-78844302D01*
X110748864Y-78844303D01*
X110748863Y-78844303D01*
X110649408Y-78885499D01*
X110543827Y-78906500D01*
X110436173Y-78906500D01*
X110330592Y-78885499D01*
X110231137Y-78844303D01*
X110231136Y-78844303D01*
X110231135Y-78844302D01*
X110141627Y-78784494D01*
X110065506Y-78708373D01*
X110005698Y-78618865D01*
X110005697Y-78618863D01*
X109964501Y-78519408D01*
X109943500Y-78413827D01*
X109943500Y-78306173D01*
X109964501Y-78200592D01*
X110005697Y-78101137D01*
X110065505Y-78011628D01*
X110141628Y-77935505D01*
X110186077Y-77905805D01*
X110231135Y-77875698D01*
X110231137Y-77875697D01*
X110330592Y-77834501D01*
X110436173Y-77813500D01*
X110543827Y-77813500D01*
X110649408Y-77834501D01*
X110649408Y-77834501D01*
G37*
G36*
X103111610Y-75620347D02*
G01*
X103231242Y-75644143D01*
X103456626Y-75737500D01*
X103659466Y-75873033D01*
X103831967Y-76045534D01*
X103967500Y-76248374D01*
X104060857Y-76473758D01*
X104108450Y-76713023D01*
X104108450Y-76956977D01*
X104060857Y-77196242D01*
X103967500Y-77421626D01*
X103831967Y-77624466D01*
X103659466Y-77796967D01*
X103456626Y-77932500D01*
X103456625Y-77932501D01*
X103456624Y-77932501D01*
X103390611Y-77959844D01*
X103231242Y-78025857D01*
X103111609Y-78049654D01*
X102991978Y-78073450D01*
X102748022Y-78073450D01*
X102628391Y-78049654D01*
X102508758Y-78025857D01*
X102349389Y-77959844D01*
X102283376Y-77932501D01*
X102283375Y-77932501D01*
X102283374Y-77932500D01*
X102080534Y-77796967D01*
X101908033Y-77624466D01*
X101772500Y-77421626D01*
X101679143Y-77196242D01*
X101631550Y-76956977D01*
X101631550Y-76713023D01*
X101679143Y-76473758D01*
X101772500Y-76248374D01*
X101908033Y-76045534D01*
X102080534Y-75873033D01*
X102283374Y-75737500D01*
X102508758Y-75644143D01*
X102628390Y-75620347D01*
X102748022Y-75596550D01*
X102991978Y-75596550D01*
X103111610Y-75620347D01*
X103111610Y-75620347D01*
G37*
G36*
X108826610Y-75620347D02*
G01*
X108946242Y-75644143D01*
X109171626Y-75737500D01*
X109374466Y-75873033D01*
X109546967Y-76045534D01*
X109682500Y-76248374D01*
X109775857Y-76473758D01*
X109823450Y-76713023D01*
X109823450Y-76956977D01*
X109775857Y-77196242D01*
X109682500Y-77421626D01*
X109546967Y-77624466D01*
X109374466Y-77796967D01*
X109171626Y-77932500D01*
X109171625Y-77932501D01*
X109171624Y-77932501D01*
X109105611Y-77959844D01*
X108946242Y-78025857D01*
X108826609Y-78049654D01*
X108706978Y-78073450D01*
X108463022Y-78073450D01*
X108343391Y-78049654D01*
X108223758Y-78025857D01*
X108064389Y-77959844D01*
X107998376Y-77932501D01*
X107998375Y-77932501D01*
X107998374Y-77932500D01*
X107795534Y-77796967D01*
X107623033Y-77624466D01*
X107487500Y-77421626D01*
X107394143Y-77196242D01*
X107346550Y-76956977D01*
X107346550Y-76713023D01*
X107394143Y-76473758D01*
X107487500Y-76248374D01*
X107623033Y-76045534D01*
X107795534Y-75873033D01*
X107998374Y-75737500D01*
X108223758Y-75644143D01*
X108343390Y-75620347D01*
X108463022Y-75596550D01*
X108706978Y-75596550D01*
X108826610Y-75620347D01*
X108826610Y-75620347D01*
G37*
G36*
X103111610Y-68635347D02*
G01*
X103231242Y-68659143D01*
X103265596Y-68673373D01*
X103449372Y-68749495D01*
X103456626Y-68752500D01*
X103659466Y-68888033D01*
X103831967Y-69060534D01*
X103967500Y-69263374D01*
X104060857Y-69488758D01*
X104108450Y-69728023D01*
X104108450Y-69971977D01*
X104060857Y-70211242D01*
X103967500Y-70436626D01*
X103831967Y-70639466D01*
X103659466Y-70811967D01*
X103456626Y-70947500D01*
X103231242Y-71040857D01*
X103111609Y-71064654D01*
X102991978Y-71088450D01*
X102748022Y-71088450D01*
X102628391Y-71064654D01*
X102508758Y-71040857D01*
X102283374Y-70947500D01*
X102080534Y-70811967D01*
X101908033Y-70639466D01*
X101772500Y-70436626D01*
X101679143Y-70211242D01*
X101631550Y-69971977D01*
X101631550Y-69728023D01*
X101679143Y-69488758D01*
X101772500Y-69263374D01*
X101908033Y-69060534D01*
X102080534Y-68888033D01*
X102283374Y-68752500D01*
X102290629Y-68749495D01*
X102474404Y-68673373D01*
X102508758Y-68659143D01*
X102628390Y-68635347D01*
X102748022Y-68611550D01*
X102991978Y-68611550D01*
X103111610Y-68635347D01*
X103111610Y-68635347D01*
G37*
G36*
X106286610Y-68635347D02*
G01*
X106406242Y-68659143D01*
X106440596Y-68673373D01*
X106624372Y-68749495D01*
X106631626Y-68752500D01*
X106834466Y-68888033D01*
X107006967Y-69060534D01*
X107142500Y-69263374D01*
X107235857Y-69488758D01*
X107283450Y-69728023D01*
X107283450Y-69971977D01*
X107235857Y-70211242D01*
X107142500Y-70436626D01*
X107006967Y-70639466D01*
X106834466Y-70811967D01*
X106631626Y-70947500D01*
X106406242Y-71040857D01*
X106286609Y-71064654D01*
X106166978Y-71088450D01*
X105923022Y-71088450D01*
X105803391Y-71064654D01*
X105683758Y-71040857D01*
X105458374Y-70947500D01*
X105255534Y-70811967D01*
X105083033Y-70639466D01*
X104947500Y-70436626D01*
X104854143Y-70211242D01*
X104806550Y-69971977D01*
X104806550Y-69728023D01*
X104854143Y-69488758D01*
X104947500Y-69263374D01*
X105083033Y-69060534D01*
X105255534Y-68888033D01*
X105458374Y-68752500D01*
X105465629Y-68749495D01*
X105649404Y-68673373D01*
X105683758Y-68659143D01*
X105803390Y-68635347D01*
X105923022Y-68611550D01*
X106166978Y-68611550D01*
X106286610Y-68635347D01*
X106286610Y-68635347D01*
G37*
G36*
X125635408Y-68054501D02*
G01*
X125734863Y-68095697D01*
X125734865Y-68095698D01*
X125758514Y-68111500D01*
X125824372Y-68155505D01*
X125900495Y-68231628D01*
X125960303Y-68321137D01*
X126001499Y-68420592D01*
X126022500Y-68526173D01*
X126022500Y-68633827D01*
X126001499Y-68739408D01*
X125972547Y-68809303D01*
X125960302Y-68838865D01*
X125900494Y-68928373D01*
X125824373Y-69004494D01*
X125734865Y-69064302D01*
X125734864Y-69064303D01*
X125734863Y-69064303D01*
X125635408Y-69105499D01*
X125529827Y-69126500D01*
X125422173Y-69126500D01*
X125316592Y-69105499D01*
X125217137Y-69064303D01*
X125217136Y-69064303D01*
X125217135Y-69064302D01*
X125127627Y-69004494D01*
X125051506Y-68928373D01*
X124991698Y-68838865D01*
X124979453Y-68809303D01*
X124950501Y-68739408D01*
X124929500Y-68633827D01*
X124929500Y-68526173D01*
X124950501Y-68420592D01*
X124991697Y-68321137D01*
X125051505Y-68231628D01*
X125127628Y-68155505D01*
X125193486Y-68111500D01*
X125217135Y-68095698D01*
X125217137Y-68095697D01*
X125316592Y-68054501D01*
X125422173Y-68033500D01*
X125529827Y-68033500D01*
X125635408Y-68054501D01*
X125635408Y-68054501D01*
G37*
G36*
X108109408Y-67799501D02*
G01*
X108208863Y-67840697D01*
X108208865Y-67840698D01*
X108229871Y-67854734D01*
X108298372Y-67900505D01*
X108374495Y-67976628D01*
X108434303Y-68066137D01*
X108475499Y-68165592D01*
X108496500Y-68271173D01*
X108496500Y-68378827D01*
X108475499Y-68484408D01*
X108434303Y-68583863D01*
X108434302Y-68583865D01*
X108415803Y-68611550D01*
X108374495Y-68673372D01*
X108298372Y-68749495D01*
X108253923Y-68779195D01*
X108208865Y-68809302D01*
X108208864Y-68809303D01*
X108208863Y-68809303D01*
X108109408Y-68850499D01*
X108003827Y-68871500D01*
X107896173Y-68871500D01*
X107790592Y-68850499D01*
X107691137Y-68809303D01*
X107691136Y-68809303D01*
X107691135Y-68809302D01*
X107646077Y-68779195D01*
X107601628Y-68749495D01*
X107525505Y-68673372D01*
X107484197Y-68611550D01*
X107465698Y-68583865D01*
X107465697Y-68583863D01*
X107424501Y-68484408D01*
X107403500Y-68378827D01*
X107403500Y-68271173D01*
X107424501Y-68165592D01*
X107465697Y-68066137D01*
X107525505Y-67976628D01*
X107601628Y-67900505D01*
X107670129Y-67854734D01*
X107691135Y-67840698D01*
X107691137Y-67840697D01*
X107790592Y-67799501D01*
X107896173Y-67778500D01*
X108003827Y-67778500D01*
X108109408Y-67799501D01*
X108109408Y-67799501D01*
G37*
G36*
X124335656Y-67772581D02*
G01*
X124416548Y-67806088D01*
X124416550Y-67806089D01*
X124489352Y-67854734D01*
X124551266Y-67916648D01*
X124599463Y-67988779D01*
X124599912Y-67989452D01*
X124633419Y-68070344D01*
X124650500Y-68156219D01*
X124650500Y-68243781D01*
X124633419Y-68329656D01*
X124613051Y-68378827D01*
X124599911Y-68410550D01*
X124551266Y-68483352D01*
X124489352Y-68545266D01*
X124416550Y-68593911D01*
X124416549Y-68593912D01*
X124416548Y-68593912D01*
X124335656Y-68627419D01*
X124249781Y-68644500D01*
X124162219Y-68644500D01*
X124076344Y-68627419D01*
X123995452Y-68593912D01*
X123995451Y-68593912D01*
X123995450Y-68593911D01*
X123922648Y-68545266D01*
X123860734Y-68483352D01*
X123812089Y-68410550D01*
X123798949Y-68378827D01*
X123778581Y-68329656D01*
X123761500Y-68243781D01*
X123761500Y-68156219D01*
X123778581Y-68070344D01*
X123812088Y-67989452D01*
X123812538Y-67988779D01*
X123860734Y-67916648D01*
X123922648Y-67854734D01*
X123995450Y-67806089D01*
X123995452Y-67806088D01*
X124076344Y-67772581D01*
X124162219Y-67755500D01*
X124249781Y-67755500D01*
X124335656Y-67772581D01*
X124335656Y-67772581D01*
G37*
G36*
X123065656Y-67772581D02*
G01*
X123146548Y-67806088D01*
X123146550Y-67806089D01*
X123219352Y-67854734D01*
X123281266Y-67916648D01*
X123329463Y-67988779D01*
X123329912Y-67989452D01*
X123363419Y-68070344D01*
X123380500Y-68156219D01*
X123380500Y-68243781D01*
X123363419Y-68329656D01*
X123343051Y-68378827D01*
X123329911Y-68410550D01*
X123281266Y-68483352D01*
X123219352Y-68545266D01*
X123146550Y-68593911D01*
X123146549Y-68593912D01*
X123146548Y-68593912D01*
X123065656Y-68627419D01*
X122979781Y-68644500D01*
X122892219Y-68644500D01*
X122806344Y-68627419D01*
X122725452Y-68593912D01*
X122725451Y-68593912D01*
X122725450Y-68593911D01*
X122652648Y-68545266D01*
X122590734Y-68483352D01*
X122542089Y-68410550D01*
X122528949Y-68378827D01*
X122508581Y-68329656D01*
X122491500Y-68243781D01*
X122491500Y-68156219D01*
X122508581Y-68070344D01*
X122542088Y-67989452D01*
X122542538Y-67988779D01*
X122590734Y-67916648D01*
X122652648Y-67854734D01*
X122725450Y-67806089D01*
X122725452Y-67806088D01*
X122806344Y-67772581D01*
X122892219Y-67755500D01*
X122979781Y-67755500D01*
X123065656Y-67772581D01*
X123065656Y-67772581D01*
G37*
G36*
X121795656Y-67772581D02*
G01*
X121876548Y-67806088D01*
X121876550Y-67806089D01*
X121949352Y-67854734D01*
X122011266Y-67916648D01*
X122059463Y-67988779D01*
X122059912Y-67989452D01*
X122093419Y-68070344D01*
X122110500Y-68156219D01*
X122110500Y-68243781D01*
X122093419Y-68329656D01*
X122073051Y-68378827D01*
X122059911Y-68410550D01*
X122011266Y-68483352D01*
X121949352Y-68545266D01*
X121876550Y-68593911D01*
X121876549Y-68593912D01*
X121876548Y-68593912D01*
X121795656Y-68627419D01*
X121709781Y-68644500D01*
X121622219Y-68644500D01*
X121536344Y-68627419D01*
X121455452Y-68593912D01*
X121455451Y-68593912D01*
X121455450Y-68593911D01*
X121382648Y-68545266D01*
X121320734Y-68483352D01*
X121272089Y-68410550D01*
X121258949Y-68378827D01*
X121238581Y-68329656D01*
X121221500Y-68243781D01*
X121221500Y-68156219D01*
X121238581Y-68070344D01*
X121272088Y-67989452D01*
X121272538Y-67988779D01*
X121320734Y-67916648D01*
X121382648Y-67854734D01*
X121455450Y-67806089D01*
X121455452Y-67806088D01*
X121536344Y-67772581D01*
X121622219Y-67755500D01*
X121709781Y-67755500D01*
X121795656Y-67772581D01*
X121795656Y-67772581D01*
G37*
G36*
X104269656Y-67517581D02*
G01*
X104350548Y-67551088D01*
X104350550Y-67551089D01*
X104423352Y-67599734D01*
X104485266Y-67661648D01*
X104533912Y-67734452D01*
X104567419Y-67815344D01*
X104584500Y-67901219D01*
X104584500Y-67988781D01*
X104567419Y-68074656D01*
X104533930Y-68155505D01*
X104533911Y-68155550D01*
X104485266Y-68228352D01*
X104423352Y-68290266D01*
X104350550Y-68338911D01*
X104350549Y-68338912D01*
X104350548Y-68338912D01*
X104269656Y-68372419D01*
X104183781Y-68389500D01*
X104096219Y-68389500D01*
X104010344Y-68372419D01*
X103929452Y-68338912D01*
X103929451Y-68338912D01*
X103929450Y-68338911D01*
X103856648Y-68290266D01*
X103794734Y-68228352D01*
X103746089Y-68155550D01*
X103746070Y-68155505D01*
X103712581Y-68074656D01*
X103695500Y-67988781D01*
X103695500Y-67901219D01*
X103712581Y-67815344D01*
X103746088Y-67734452D01*
X103794734Y-67661648D01*
X103856648Y-67599734D01*
X103929450Y-67551089D01*
X103929452Y-67551088D01*
X104010344Y-67517581D01*
X104096219Y-67500500D01*
X104183781Y-67500500D01*
X104269656Y-67517581D01*
X104269656Y-67517581D01*
G37*
G36*
X106809656Y-67517581D02*
G01*
X106890548Y-67551088D01*
X106890550Y-67551089D01*
X106963352Y-67599734D01*
X107025266Y-67661648D01*
X107073912Y-67734452D01*
X107107419Y-67815344D01*
X107124500Y-67901219D01*
X107124500Y-67988781D01*
X107107419Y-68074656D01*
X107073930Y-68155505D01*
X107073911Y-68155550D01*
X107025266Y-68228352D01*
X106963352Y-68290266D01*
X106890550Y-68338911D01*
X106890549Y-68338912D01*
X106890548Y-68338912D01*
X106809656Y-68372419D01*
X106723781Y-68389500D01*
X106636219Y-68389500D01*
X106550344Y-68372419D01*
X106469452Y-68338912D01*
X106469451Y-68338912D01*
X106469450Y-68338911D01*
X106396648Y-68290266D01*
X106334734Y-68228352D01*
X106286089Y-68155550D01*
X106286070Y-68155505D01*
X106252581Y-68074656D01*
X106235500Y-67988781D01*
X106235500Y-67901219D01*
X106252581Y-67815344D01*
X106286088Y-67734452D01*
X106334734Y-67661648D01*
X106396648Y-67599734D01*
X106469450Y-67551089D01*
X106469452Y-67551088D01*
X106550344Y-67517581D01*
X106636219Y-67500500D01*
X106723781Y-67500500D01*
X106809656Y-67517581D01*
X106809656Y-67517581D01*
G37*
G36*
X105539656Y-67517581D02*
G01*
X105620548Y-67551088D01*
X105620550Y-67551089D01*
X105693352Y-67599734D01*
X105755266Y-67661648D01*
X105803912Y-67734452D01*
X105837419Y-67815344D01*
X105854500Y-67901219D01*
X105854500Y-67988781D01*
X105837419Y-68074656D01*
X105803930Y-68155505D01*
X105803911Y-68155550D01*
X105755266Y-68228352D01*
X105693352Y-68290266D01*
X105620550Y-68338911D01*
X105620549Y-68338912D01*
X105620548Y-68338912D01*
X105539656Y-68372419D01*
X105453781Y-68389500D01*
X105366219Y-68389500D01*
X105280344Y-68372419D01*
X105199452Y-68338912D01*
X105199451Y-68338912D01*
X105199450Y-68338911D01*
X105126648Y-68290266D01*
X105064734Y-68228352D01*
X105016089Y-68155550D01*
X105016070Y-68155505D01*
X104982581Y-68074656D01*
X104965500Y-67988781D01*
X104965500Y-67901219D01*
X104982581Y-67815344D01*
X105016088Y-67734452D01*
X105064734Y-67661648D01*
X105126648Y-67599734D01*
X105199450Y-67551089D01*
X105199452Y-67551088D01*
X105280344Y-67517581D01*
X105366219Y-67500500D01*
X105453781Y-67500500D01*
X105539656Y-67517581D01*
X105539656Y-67517581D01*
G37*
G36*
X120555408Y-67039501D02*
G01*
X120654863Y-67080697D01*
X120654865Y-67080698D01*
X120678514Y-67096500D01*
X120744372Y-67140505D01*
X120820495Y-67216628D01*
X120880303Y-67306137D01*
X120921499Y-67405592D01*
X120942500Y-67511173D01*
X120942500Y-67618827D01*
X120921499Y-67724408D01*
X120880303Y-67823863D01*
X120880302Y-67823865D01*
X120820494Y-67913373D01*
X120744373Y-67989494D01*
X120654865Y-68049302D01*
X120654864Y-68049303D01*
X120654863Y-68049303D01*
X120555408Y-68090499D01*
X120449827Y-68111500D01*
X120342173Y-68111500D01*
X120236592Y-68090499D01*
X120137137Y-68049303D01*
X120137136Y-68049303D01*
X120137135Y-68049302D01*
X120047627Y-67989494D01*
X119971506Y-67913373D01*
X119911698Y-67823865D01*
X119911697Y-67823863D01*
X119870501Y-67724408D01*
X119849500Y-67618827D01*
X119849500Y-67511173D01*
X119870501Y-67405592D01*
X119911697Y-67306137D01*
X119971505Y-67216628D01*
X120047628Y-67140505D01*
X120113486Y-67096500D01*
X120137135Y-67080698D01*
X120137137Y-67080697D01*
X120236592Y-67039501D01*
X120342173Y-67018500D01*
X120449827Y-67018500D01*
X120555408Y-67039501D01*
X120555408Y-67039501D01*
G37*
G36*
X103029408Y-66784501D02*
G01*
X103128863Y-66825697D01*
X103128865Y-66825698D01*
X103152514Y-66841500D01*
X103218372Y-66885505D01*
X103294495Y-66961628D01*
X103354303Y-67051137D01*
X103395499Y-67150592D01*
X103416500Y-67256173D01*
X103416500Y-67363827D01*
X103395499Y-67469408D01*
X103361665Y-67551089D01*
X103354302Y-67568865D01*
X103294494Y-67658373D01*
X103218373Y-67734494D01*
X103128865Y-67794302D01*
X103128864Y-67794303D01*
X103128863Y-67794303D01*
X103029408Y-67835499D01*
X102923827Y-67856500D01*
X102816173Y-67856500D01*
X102710592Y-67835499D01*
X102611137Y-67794303D01*
X102611136Y-67794303D01*
X102611135Y-67794302D01*
X102521627Y-67734494D01*
X102445506Y-67658373D01*
X102385698Y-67568865D01*
X102378335Y-67551089D01*
X102344501Y-67469408D01*
X102323500Y-67363827D01*
X102323500Y-67256173D01*
X102344501Y-67150592D01*
X102385697Y-67051137D01*
X102445505Y-66961628D01*
X102521628Y-66885505D01*
X102587486Y-66841500D01*
X102611135Y-66825698D01*
X102611137Y-66825697D01*
X102710592Y-66784501D01*
X102816173Y-66763500D01*
X102923827Y-66763500D01*
X103029408Y-66784501D01*
X103029408Y-66784501D01*
G37*
G36*
X124335656Y-66502581D02*
G01*
X124416548Y-66536088D01*
X124416550Y-66536089D01*
X124489352Y-66584734D01*
X124551266Y-66646648D01*
X124599463Y-66718779D01*
X124599912Y-66719452D01*
X124633419Y-66800344D01*
X124650500Y-66886219D01*
X124650500Y-66973781D01*
X124633419Y-67059656D01*
X124608630Y-67119500D01*
X124599911Y-67140550D01*
X124551266Y-67213352D01*
X124489352Y-67275266D01*
X124416550Y-67323911D01*
X124416549Y-67323912D01*
X124416548Y-67323912D01*
X124335656Y-67357419D01*
X124249781Y-67374500D01*
X124162219Y-67374500D01*
X124076344Y-67357419D01*
X123995452Y-67323912D01*
X123995451Y-67323912D01*
X123995450Y-67323911D01*
X123922648Y-67275266D01*
X123860734Y-67213352D01*
X123812089Y-67140550D01*
X123803370Y-67119500D01*
X123778581Y-67059656D01*
X123761500Y-66973781D01*
X123761500Y-66886219D01*
X123778581Y-66800344D01*
X123812088Y-66719452D01*
X123812538Y-66718779D01*
X123860734Y-66646648D01*
X123922648Y-66584734D01*
X123995450Y-66536089D01*
X123995452Y-66536088D01*
X124076344Y-66502581D01*
X124162219Y-66485500D01*
X124249781Y-66485500D01*
X124335656Y-66502581D01*
X124335656Y-66502581D01*
G37*
G36*
X123065656Y-66502581D02*
G01*
X123146548Y-66536088D01*
X123146550Y-66536089D01*
X123219352Y-66584734D01*
X123281266Y-66646648D01*
X123329463Y-66718779D01*
X123329912Y-66719452D01*
X123363419Y-66800344D01*
X123380500Y-66886219D01*
X123380500Y-66973781D01*
X123363419Y-67059656D01*
X123338630Y-67119500D01*
X123329911Y-67140550D01*
X123281266Y-67213352D01*
X123219352Y-67275266D01*
X123146550Y-67323911D01*
X123146549Y-67323912D01*
X123146548Y-67323912D01*
X123065656Y-67357419D01*
X122979781Y-67374500D01*
X122892219Y-67374500D01*
X122806344Y-67357419D01*
X122725452Y-67323912D01*
X122725451Y-67323912D01*
X122725450Y-67323911D01*
X122652648Y-67275266D01*
X122590734Y-67213352D01*
X122542089Y-67140550D01*
X122533370Y-67119500D01*
X122508581Y-67059656D01*
X122491500Y-66973781D01*
X122491500Y-66886219D01*
X122508581Y-66800344D01*
X122542088Y-66719452D01*
X122542538Y-66718779D01*
X122590734Y-66646648D01*
X122652648Y-66584734D01*
X122725450Y-66536089D01*
X122725452Y-66536088D01*
X122806344Y-66502581D01*
X122892219Y-66485500D01*
X122979781Y-66485500D01*
X123065656Y-66502581D01*
X123065656Y-66502581D01*
G37*
G36*
X121795656Y-66502581D02*
G01*
X121876548Y-66536088D01*
X121876550Y-66536089D01*
X121949352Y-66584734D01*
X122011266Y-66646648D01*
X122059463Y-66718779D01*
X122059912Y-66719452D01*
X122093419Y-66800344D01*
X122110500Y-66886219D01*
X122110500Y-66973781D01*
X122093419Y-67059656D01*
X122068630Y-67119500D01*
X122059911Y-67140550D01*
X122011266Y-67213352D01*
X121949352Y-67275266D01*
X121876550Y-67323911D01*
X121876549Y-67323912D01*
X121876548Y-67323912D01*
X121795656Y-67357419D01*
X121709781Y-67374500D01*
X121622219Y-67374500D01*
X121536344Y-67357419D01*
X121455452Y-67323912D01*
X121455451Y-67323912D01*
X121455450Y-67323911D01*
X121382648Y-67275266D01*
X121320734Y-67213352D01*
X121272089Y-67140550D01*
X121263370Y-67119500D01*
X121238581Y-67059656D01*
X121221500Y-66973781D01*
X121221500Y-66886219D01*
X121238581Y-66800344D01*
X121272088Y-66719452D01*
X121272538Y-66718779D01*
X121320734Y-66646648D01*
X121382648Y-66584734D01*
X121455450Y-66536089D01*
X121455452Y-66536088D01*
X121536344Y-66502581D01*
X121622219Y-66485500D01*
X121709781Y-66485500D01*
X121795656Y-66502581D01*
X121795656Y-66502581D01*
G37*
G36*
X106809656Y-66247581D02*
G01*
X106890548Y-66281088D01*
X106890550Y-66281089D01*
X106963352Y-66329734D01*
X107025266Y-66391648D01*
X107073912Y-66464452D01*
X107107419Y-66545344D01*
X107124500Y-66631219D01*
X107124500Y-66718781D01*
X107107419Y-66804656D01*
X107073930Y-66885505D01*
X107073911Y-66885550D01*
X107025266Y-66958352D01*
X106963352Y-67020266D01*
X106890550Y-67068911D01*
X106890549Y-67068912D01*
X106890548Y-67068912D01*
X106809656Y-67102419D01*
X106723781Y-67119500D01*
X106636219Y-67119500D01*
X106550344Y-67102419D01*
X106469452Y-67068912D01*
X106469451Y-67068912D01*
X106469450Y-67068911D01*
X106396648Y-67020266D01*
X106334734Y-66958352D01*
X106286089Y-66885550D01*
X106286070Y-66885505D01*
X106252581Y-66804656D01*
X106235500Y-66718781D01*
X106235500Y-66631219D01*
X106252581Y-66545344D01*
X106286088Y-66464452D01*
X106334734Y-66391648D01*
X106396648Y-66329734D01*
X106469450Y-66281089D01*
X106469452Y-66281088D01*
X106550344Y-66247581D01*
X106636219Y-66230500D01*
X106723781Y-66230500D01*
X106809656Y-66247581D01*
X106809656Y-66247581D01*
G37*
G36*
X105539656Y-66247581D02*
G01*
X105620548Y-66281088D01*
X105620550Y-66281089D01*
X105693352Y-66329734D01*
X105755266Y-66391648D01*
X105803912Y-66464452D01*
X105837419Y-66545344D01*
X105854500Y-66631219D01*
X105854500Y-66718781D01*
X105837419Y-66804656D01*
X105803930Y-66885505D01*
X105803911Y-66885550D01*
X105755266Y-66958352D01*
X105693352Y-67020266D01*
X105620550Y-67068911D01*
X105620549Y-67068912D01*
X105620548Y-67068912D01*
X105539656Y-67102419D01*
X105453781Y-67119500D01*
X105366219Y-67119500D01*
X105280344Y-67102419D01*
X105199452Y-67068912D01*
X105199451Y-67068912D01*
X105199450Y-67068911D01*
X105126648Y-67020266D01*
X105064734Y-66958352D01*
X105016089Y-66885550D01*
X105016070Y-66885505D01*
X104982581Y-66804656D01*
X104965500Y-66718781D01*
X104965500Y-66631219D01*
X104982581Y-66545344D01*
X105016088Y-66464452D01*
X105064734Y-66391648D01*
X105126648Y-66329734D01*
X105199450Y-66281089D01*
X105199452Y-66281088D01*
X105280344Y-66247581D01*
X105366219Y-66230500D01*
X105453781Y-66230500D01*
X105539656Y-66247581D01*
X105539656Y-66247581D01*
G37*
G36*
X104269656Y-66247581D02*
G01*
X104350548Y-66281088D01*
X104350550Y-66281089D01*
X104423352Y-66329734D01*
X104485266Y-66391648D01*
X104533912Y-66464452D01*
X104567419Y-66545344D01*
X104584500Y-66631219D01*
X104584500Y-66718781D01*
X104567419Y-66804656D01*
X104533930Y-66885505D01*
X104533911Y-66885550D01*
X104485266Y-66958352D01*
X104423352Y-67020266D01*
X104350550Y-67068911D01*
X104350549Y-67068912D01*
X104350548Y-67068912D01*
X104269656Y-67102419D01*
X104183781Y-67119500D01*
X104096219Y-67119500D01*
X104010344Y-67102419D01*
X103929452Y-67068912D01*
X103929451Y-67068912D01*
X103929450Y-67068911D01*
X103856648Y-67020266D01*
X103794734Y-66958352D01*
X103746089Y-66885550D01*
X103746070Y-66885505D01*
X103712581Y-66804656D01*
X103695500Y-66718781D01*
X103695500Y-66631219D01*
X103712581Y-66545344D01*
X103746088Y-66464452D01*
X103794734Y-66391648D01*
X103856648Y-66329734D01*
X103929450Y-66281089D01*
X103929452Y-66281088D01*
X104010344Y-66247581D01*
X104096219Y-66230500D01*
X104183781Y-66230500D01*
X104269656Y-66247581D01*
X104269656Y-66247581D01*
G37*
G36*
X125635408Y-66024501D02*
G01*
X125734863Y-66065697D01*
X125734865Y-66065698D01*
X125824373Y-66125506D01*
X125900494Y-66201627D01*
X125953589Y-66281088D01*
X125960303Y-66291137D01*
X126001499Y-66390592D01*
X126022500Y-66496173D01*
X126022500Y-66603827D01*
X126001499Y-66709408D01*
X125960303Y-66808863D01*
X125909064Y-66885548D01*
X125900494Y-66898373D01*
X125824373Y-66974494D01*
X125734865Y-67034302D01*
X125734864Y-67034303D01*
X125734863Y-67034303D01*
X125635408Y-67075499D01*
X125529827Y-67096500D01*
X125422173Y-67096500D01*
X125316592Y-67075499D01*
X125217137Y-67034303D01*
X125217136Y-67034303D01*
X125217135Y-67034302D01*
X125127627Y-66974494D01*
X125051506Y-66898373D01*
X125042937Y-66885548D01*
X124991697Y-66808863D01*
X124950501Y-66709408D01*
X124929500Y-66603827D01*
X124929500Y-66496173D01*
X124950501Y-66390592D01*
X124991697Y-66291137D01*
X124998412Y-66281088D01*
X125051506Y-66201627D01*
X125127627Y-66125506D01*
X125217135Y-66065698D01*
X125217137Y-66065697D01*
X125316592Y-66024501D01*
X125422173Y-66003500D01*
X125529827Y-66003500D01*
X125635408Y-66024501D01*
X125635408Y-66024501D01*
G37*
G36*
X108109408Y-65769501D02*
G01*
X108208863Y-65810697D01*
X108208865Y-65810698D01*
X108253923Y-65840805D01*
X108298372Y-65870505D01*
X108374495Y-65946628D01*
X108434303Y-66036137D01*
X108475499Y-66135592D01*
X108496500Y-66241173D01*
X108496500Y-66348827D01*
X108475499Y-66454408D01*
X108434303Y-66553863D01*
X108434302Y-66553865D01*
X108374494Y-66643373D01*
X108298373Y-66719494D01*
X108208865Y-66779302D01*
X108208864Y-66779303D01*
X108208863Y-66779303D01*
X108109408Y-66820499D01*
X108003827Y-66841500D01*
X107896173Y-66841500D01*
X107790592Y-66820499D01*
X107691137Y-66779303D01*
X107691136Y-66779303D01*
X107691135Y-66779302D01*
X107601627Y-66719494D01*
X107525506Y-66643373D01*
X107465698Y-66553865D01*
X107465697Y-66553863D01*
X107424501Y-66454408D01*
X107403500Y-66348827D01*
X107403500Y-66241173D01*
X107424501Y-66135592D01*
X107465697Y-66036137D01*
X107525505Y-65946628D01*
X107601628Y-65870505D01*
X107646077Y-65840805D01*
X107691135Y-65810698D01*
X107691137Y-65810697D01*
X107790592Y-65769501D01*
X107896173Y-65748500D01*
X108003827Y-65748500D01*
X108109408Y-65769501D01*
X108109408Y-65769501D01*
G37*
G36*
X103111610Y-63555347D02*
G01*
X103231242Y-63579143D01*
X103456626Y-63672500D01*
X103659466Y-63808033D01*
X103831967Y-63980534D01*
X103967500Y-64183374D01*
X104060857Y-64408758D01*
X104108450Y-64648023D01*
X104108450Y-64891977D01*
X104060857Y-65131242D01*
X103967500Y-65356626D01*
X103831967Y-65559466D01*
X103659466Y-65731967D01*
X103456626Y-65867500D01*
X103456625Y-65867501D01*
X103456624Y-65867501D01*
X103449369Y-65870506D01*
X103231242Y-65960857D01*
X103111610Y-65984653D01*
X102991978Y-66008450D01*
X102748022Y-66008450D01*
X102628390Y-65984653D01*
X102508758Y-65960857D01*
X102290631Y-65870506D01*
X102283376Y-65867501D01*
X102283375Y-65867501D01*
X102283374Y-65867500D01*
X102080534Y-65731967D01*
X101908033Y-65559466D01*
X101772500Y-65356626D01*
X101679143Y-65131242D01*
X101631550Y-64891977D01*
X101631550Y-64648023D01*
X101679143Y-64408758D01*
X101772500Y-64183374D01*
X101908033Y-63980534D01*
X102080534Y-63808033D01*
X102283374Y-63672500D01*
X102508758Y-63579143D01*
X102628390Y-63555347D01*
X102748022Y-63531550D01*
X102991978Y-63531550D01*
X103111610Y-63555347D01*
X103111610Y-63555347D01*
G37*
G36*
X106286610Y-63555347D02*
G01*
X106406242Y-63579143D01*
X106631626Y-63672500D01*
X106834466Y-63808033D01*
X107006967Y-63980534D01*
X107142500Y-64183374D01*
X107235857Y-64408758D01*
X107283450Y-64648023D01*
X107283450Y-64891977D01*
X107235857Y-65131242D01*
X107142500Y-65356626D01*
X107006967Y-65559466D01*
X106834466Y-65731967D01*
X106631626Y-65867500D01*
X106631625Y-65867501D01*
X106631624Y-65867501D01*
X106624369Y-65870506D01*
X106406242Y-65960857D01*
X106286610Y-65984653D01*
X106166978Y-66008450D01*
X105923022Y-66008450D01*
X105803390Y-65984653D01*
X105683758Y-65960857D01*
X105465631Y-65870506D01*
X105458376Y-65867501D01*
X105458375Y-65867501D01*
X105458374Y-65867500D01*
X105255534Y-65731967D01*
X105083033Y-65559466D01*
X104947500Y-65356626D01*
X104854143Y-65131242D01*
X104806550Y-64891977D01*
X104806550Y-64648023D01*
X104854143Y-64408758D01*
X104947500Y-64183374D01*
X105083033Y-63980534D01*
X105255534Y-63808033D01*
X105458374Y-63672500D01*
X105683758Y-63579143D01*
X105803390Y-63555347D01*
X105923022Y-63531550D01*
X106166978Y-63531550D01*
X106286610Y-63555347D01*
X106286610Y-63555347D01*
G37*
M02*
