G04 #@! TF.GenerationSoftware,KiCad,Pcbnew,(5.1.0-rc1-9-g8f320697a)*
G04 #@! TF.CreationDate,2019-03-02T18:11:08+09:00
G04 #@! TF.ProjectId,Tag_Connect_KiC,5461675f-436f-46e6-9e65-63745f4b6943,rev?*
G04 #@! TF.SameCoordinates,Original*
G04 #@! TF.FileFunction,Copper,L1,Top*
G04 #@! TF.FilePolarity,Positive*
%FSLAX46Y46*%
G04 Gerber Fmt 4.6, Leading zero omitted, Abs format (unit mm)*
G04 Created by KiCad (PCBNEW (5.1.0-rc1-9-g8f320697a)) date 2019-03-02 18:11:08*
%MOMM*%
%LPD*%
G04 APERTURE LIST*
%ADD10C,0.787000*%
G04 APERTURE END LIST*
D10*
X120015000Y-90932000D03*
X121285000Y-90932000D03*
X122555000Y-90932000D03*
X123825000Y-90932000D03*
X125095000Y-90932000D03*
X126365000Y-90932000D03*
X127635000Y-90932000D03*
X127635000Y-92202000D03*
X126365000Y-92202000D03*
X125095000Y-92202000D03*
X123825000Y-92202000D03*
X122555000Y-92202000D03*
X121285000Y-92202000D03*
X120015000Y-92202000D03*
X104140000Y-91059000D03*
X105410000Y-91059000D03*
X106680000Y-91059000D03*
X107950000Y-91059000D03*
X109220000Y-91059000D03*
X110490000Y-91059000D03*
X111760000Y-91059000D03*
X111760000Y-92329000D03*
X110490000Y-92329000D03*
X109220000Y-92329000D03*
X107950000Y-92329000D03*
X106680000Y-92329000D03*
X105410000Y-92329000D03*
X104140000Y-92329000D03*
X120523000Y-78867000D03*
X121793000Y-78867000D03*
X123063000Y-78867000D03*
X124333000Y-78867000D03*
X125603000Y-78867000D03*
X125603000Y-80137000D03*
X124333000Y-80137000D03*
X123063000Y-80137000D03*
X121793000Y-80137000D03*
X120523000Y-80137000D03*
X104140000Y-78740000D03*
X105410000Y-78740000D03*
X106680000Y-78740000D03*
X107950000Y-78740000D03*
X109220000Y-78740000D03*
X109220000Y-80010000D03*
X107950000Y-80010000D03*
X106680000Y-80010000D03*
X105410000Y-80010000D03*
X104140000Y-80010000D03*
X121666000Y-66930000D03*
X122936000Y-66930000D03*
X124206000Y-66930000D03*
X124206000Y-68200000D03*
X122936000Y-68200000D03*
X121666000Y-68200000D03*
X104140000Y-66675000D03*
X105410000Y-66675000D03*
X106680000Y-66675000D03*
X106680000Y-67945000D03*
X105410000Y-67945000D03*
X104140000Y-67945000D03*
M02*
