G04 #@! TF.GenerationSoftware,KiCad,Pcbnew,(5.1.0-rc1-9-g8f320697a)*
G04 #@! TF.CreationDate,2019-03-02T18:11:08+09:00
G04 #@! TF.ProjectId,Tag_Connect_KiC,5461675f-436f-46e6-9e65-63745f4b6943,rev?*
G04 #@! TF.SameCoordinates,Original*
G04 #@! TF.FileFunction,Legend,Top*
G04 #@! TF.FilePolarity,Positive*
%FSLAX46Y46*%
G04 Gerber Fmt 4.6, Leading zero omitted, Abs format (unit mm)*
G04 Created by KiCad (PCBNEW (5.1.0-rc1-9-g8f320697a)) date 2019-03-02 18:11:08*
%MOMM*%
%LPD*%
G04 APERTURE LIST*
%ADD10C,0.150000*%
%ADD11C,0.080000*%
G04 APERTURE END LIST*
D10*
X117729761Y-96099380D02*
X118301190Y-96099380D01*
X118015476Y-97099380D02*
X118015476Y-96099380D01*
X119205952Y-97004142D02*
X119158333Y-97051761D01*
X119015476Y-97099380D01*
X118920238Y-97099380D01*
X118777380Y-97051761D01*
X118682142Y-96956523D01*
X118634523Y-96861285D01*
X118586904Y-96670809D01*
X118586904Y-96527952D01*
X118634523Y-96337476D01*
X118682142Y-96242238D01*
X118777380Y-96147000D01*
X118920238Y-96099380D01*
X119015476Y-96099380D01*
X119158333Y-96147000D01*
X119205952Y-96194619D01*
X119586904Y-96194619D02*
X119634523Y-96147000D01*
X119729761Y-96099380D01*
X119967857Y-96099380D01*
X120063095Y-96147000D01*
X120110714Y-96194619D01*
X120158333Y-96289857D01*
X120158333Y-96385095D01*
X120110714Y-96527952D01*
X119539285Y-97099380D01*
X120158333Y-97099380D01*
X120777380Y-96099380D02*
X120872619Y-96099380D01*
X120967857Y-96147000D01*
X121015476Y-96194619D01*
X121063095Y-96289857D01*
X121110714Y-96480333D01*
X121110714Y-96718428D01*
X121063095Y-96908904D01*
X121015476Y-97004142D01*
X120967857Y-97051761D01*
X120872619Y-97099380D01*
X120777380Y-97099380D01*
X120682142Y-97051761D01*
X120634523Y-97004142D01*
X120586904Y-96908904D01*
X120539285Y-96718428D01*
X120539285Y-96480333D01*
X120586904Y-96289857D01*
X120634523Y-96194619D01*
X120682142Y-96147000D01*
X120777380Y-96099380D01*
X121444047Y-96099380D02*
X122110714Y-96099380D01*
X121682142Y-97099380D01*
X122682142Y-96099380D02*
X122777380Y-96099380D01*
X122872619Y-96147000D01*
X122920238Y-96194619D01*
X122967857Y-96289857D01*
X123015476Y-96480333D01*
X123015476Y-96718428D01*
X122967857Y-96908904D01*
X122920238Y-97004142D01*
X122872619Y-97051761D01*
X122777380Y-97099380D01*
X122682142Y-97099380D01*
X122586904Y-97051761D01*
X122539285Y-97004142D01*
X122491666Y-96908904D01*
X122444047Y-96718428D01*
X122444047Y-96480333D01*
X122491666Y-96289857D01*
X122539285Y-96194619D01*
X122586904Y-96147000D01*
X122682142Y-96099380D01*
X123444047Y-96718428D02*
X124205952Y-96718428D01*
X124682142Y-97099380D02*
X124682142Y-96099380D01*
X125158333Y-97099380D02*
X125158333Y-96099380D01*
X125396428Y-96099380D01*
X125539285Y-96147000D01*
X125634523Y-96242238D01*
X125682142Y-96337476D01*
X125729761Y-96527952D01*
X125729761Y-96670809D01*
X125682142Y-96861285D01*
X125634523Y-96956523D01*
X125539285Y-97051761D01*
X125396428Y-97099380D01*
X125158333Y-97099380D01*
X126729761Y-97004142D02*
X126682142Y-97051761D01*
X126539285Y-97099380D01*
X126444047Y-97099380D01*
X126301190Y-97051761D01*
X126205952Y-96956523D01*
X126158333Y-96861285D01*
X126110714Y-96670809D01*
X126110714Y-96527952D01*
X126158333Y-96337476D01*
X126205952Y-96242238D01*
X126301190Y-96147000D01*
X126444047Y-96099380D01*
X126539285Y-96099380D01*
X126682142Y-96147000D01*
X126729761Y-96194619D01*
X127158333Y-96718428D02*
X127920238Y-96718428D01*
X128396428Y-97099380D02*
X128396428Y-96099380D01*
X128967857Y-97099380D01*
X128967857Y-96099380D01*
X129920238Y-97099380D02*
X129444047Y-97099380D01*
X129444047Y-96099380D01*
D11*
X127468333Y-92817190D02*
X127801666Y-92817190D01*
X127587380Y-93317190D01*
X127587380Y-90046976D02*
X127539761Y-90023166D01*
X127515952Y-89999357D01*
X127492142Y-89951738D01*
X127492142Y-89927928D01*
X127515952Y-89880309D01*
X127539761Y-89856500D01*
X127587380Y-89832690D01*
X127682619Y-89832690D01*
X127730238Y-89856500D01*
X127754047Y-89880309D01*
X127777857Y-89927928D01*
X127777857Y-89951738D01*
X127754047Y-89999357D01*
X127730238Y-90023166D01*
X127682619Y-90046976D01*
X127587380Y-90046976D01*
X127539761Y-90070785D01*
X127515952Y-90094595D01*
X127492142Y-90142214D01*
X127492142Y-90237452D01*
X127515952Y-90285071D01*
X127539761Y-90308880D01*
X127587380Y-90332690D01*
X127682619Y-90332690D01*
X127730238Y-90308880D01*
X127754047Y-90285071D01*
X127777857Y-90237452D01*
X127777857Y-90142214D01*
X127754047Y-90094595D01*
X127730238Y-90070785D01*
X127682619Y-90046976D01*
X120157857Y-93317190D02*
X119872142Y-93317190D01*
X120015000Y-93317190D02*
X120015000Y-92817190D01*
X119967380Y-92888619D01*
X119919761Y-92936238D01*
X119872142Y-92960047D01*
X119919761Y-90332690D02*
X119634047Y-90332690D01*
X119776904Y-90332690D02*
X119776904Y-89832690D01*
X119729285Y-89904119D01*
X119681666Y-89951738D01*
X119634047Y-89975547D01*
X120348333Y-89999357D02*
X120348333Y-90332690D01*
X120229285Y-89808880D02*
X120110238Y-90166023D01*
X120419761Y-90166023D01*
D10*
X101854761Y-96099380D02*
X102426190Y-96099380D01*
X102140476Y-97099380D02*
X102140476Y-96099380D01*
X103330952Y-97004142D02*
X103283333Y-97051761D01*
X103140476Y-97099380D01*
X103045238Y-97099380D01*
X102902380Y-97051761D01*
X102807142Y-96956523D01*
X102759523Y-96861285D01*
X102711904Y-96670809D01*
X102711904Y-96527952D01*
X102759523Y-96337476D01*
X102807142Y-96242238D01*
X102902380Y-96147000D01*
X103045238Y-96099380D01*
X103140476Y-96099380D01*
X103283333Y-96147000D01*
X103330952Y-96194619D01*
X103711904Y-96194619D02*
X103759523Y-96147000D01*
X103854761Y-96099380D01*
X104092857Y-96099380D01*
X104188095Y-96147000D01*
X104235714Y-96194619D01*
X104283333Y-96289857D01*
X104283333Y-96385095D01*
X104235714Y-96527952D01*
X103664285Y-97099380D01*
X104283333Y-97099380D01*
X104902380Y-96099380D02*
X104997619Y-96099380D01*
X105092857Y-96147000D01*
X105140476Y-96194619D01*
X105188095Y-96289857D01*
X105235714Y-96480333D01*
X105235714Y-96718428D01*
X105188095Y-96908904D01*
X105140476Y-97004142D01*
X105092857Y-97051761D01*
X104997619Y-97099380D01*
X104902380Y-97099380D01*
X104807142Y-97051761D01*
X104759523Y-97004142D01*
X104711904Y-96908904D01*
X104664285Y-96718428D01*
X104664285Y-96480333D01*
X104711904Y-96289857D01*
X104759523Y-96194619D01*
X104807142Y-96147000D01*
X104902380Y-96099380D01*
X105569047Y-96099380D02*
X106235714Y-96099380D01*
X105807142Y-97099380D01*
X106807142Y-96099380D02*
X106902380Y-96099380D01*
X106997619Y-96147000D01*
X107045238Y-96194619D01*
X107092857Y-96289857D01*
X107140476Y-96480333D01*
X107140476Y-96718428D01*
X107092857Y-96908904D01*
X107045238Y-97004142D01*
X106997619Y-97051761D01*
X106902380Y-97099380D01*
X106807142Y-97099380D01*
X106711904Y-97051761D01*
X106664285Y-97004142D01*
X106616666Y-96908904D01*
X106569047Y-96718428D01*
X106569047Y-96480333D01*
X106616666Y-96289857D01*
X106664285Y-96194619D01*
X106711904Y-96147000D01*
X106807142Y-96099380D01*
X107569047Y-96718428D02*
X108330952Y-96718428D01*
X108807142Y-97099380D02*
X108807142Y-96099380D01*
X109283333Y-97099380D02*
X109283333Y-96099380D01*
X109521428Y-96099380D01*
X109664285Y-96147000D01*
X109759523Y-96242238D01*
X109807142Y-96337476D01*
X109854761Y-96527952D01*
X109854761Y-96670809D01*
X109807142Y-96861285D01*
X109759523Y-96956523D01*
X109664285Y-97051761D01*
X109521428Y-97099380D01*
X109283333Y-97099380D01*
X110854761Y-97004142D02*
X110807142Y-97051761D01*
X110664285Y-97099380D01*
X110569047Y-97099380D01*
X110426190Y-97051761D01*
X110330952Y-96956523D01*
X110283333Y-96861285D01*
X110235714Y-96670809D01*
X110235714Y-96527952D01*
X110283333Y-96337476D01*
X110330952Y-96242238D01*
X110426190Y-96147000D01*
X110569047Y-96099380D01*
X110664285Y-96099380D01*
X110807142Y-96147000D01*
X110854761Y-96194619D01*
X111283333Y-96718428D02*
X112045238Y-96718428D01*
X112854761Y-96575571D02*
X112521428Y-96575571D01*
X112521428Y-97099380D02*
X112521428Y-96099380D01*
X112997619Y-96099380D01*
X113711904Y-96575571D02*
X113854761Y-96623190D01*
X113902380Y-96670809D01*
X113950000Y-96766047D01*
X113950000Y-96908904D01*
X113902380Y-97004142D01*
X113854761Y-97051761D01*
X113759523Y-97099380D01*
X113378571Y-97099380D01*
X113378571Y-96099380D01*
X113711904Y-96099380D01*
X113807142Y-96147000D01*
X113854761Y-96194619D01*
X113902380Y-96289857D01*
X113902380Y-96385095D01*
X113854761Y-96480333D01*
X113807142Y-96527952D01*
X113711904Y-96575571D01*
X113378571Y-96575571D01*
D11*
X112228333Y-92944190D02*
X112561666Y-92944190D01*
X112347380Y-93444190D01*
X112347380Y-90173976D02*
X112299761Y-90150166D01*
X112275952Y-90126357D01*
X112252142Y-90078738D01*
X112252142Y-90054928D01*
X112275952Y-90007309D01*
X112299761Y-89983500D01*
X112347380Y-89959690D01*
X112442619Y-89959690D01*
X112490238Y-89983500D01*
X112514047Y-90007309D01*
X112537857Y-90054928D01*
X112537857Y-90078738D01*
X112514047Y-90126357D01*
X112490238Y-90150166D01*
X112442619Y-90173976D01*
X112347380Y-90173976D01*
X112299761Y-90197785D01*
X112275952Y-90221595D01*
X112252142Y-90269214D01*
X112252142Y-90364452D01*
X112275952Y-90412071D01*
X112299761Y-90435880D01*
X112347380Y-90459690D01*
X112442619Y-90459690D01*
X112490238Y-90435880D01*
X112514047Y-90412071D01*
X112537857Y-90364452D01*
X112537857Y-90269214D01*
X112514047Y-90221595D01*
X112490238Y-90197785D01*
X112442619Y-90173976D01*
X104282857Y-93444190D02*
X103997142Y-93444190D01*
X104140000Y-93444190D02*
X104140000Y-92944190D01*
X104092380Y-93015619D01*
X104044761Y-93063238D01*
X103997142Y-93087047D01*
X104044761Y-90459690D02*
X103759047Y-90459690D01*
X103901904Y-90459690D02*
X103901904Y-89959690D01*
X103854285Y-90031119D01*
X103806666Y-90078738D01*
X103759047Y-90102547D01*
X104473333Y-90126357D02*
X104473333Y-90459690D01*
X104354285Y-89935880D02*
X104235238Y-90293023D01*
X104544761Y-90293023D01*
D10*
X116967761Y-83907380D02*
X117539190Y-83907380D01*
X117253476Y-84907380D02*
X117253476Y-83907380D01*
X118443952Y-84812142D02*
X118396333Y-84859761D01*
X118253476Y-84907380D01*
X118158238Y-84907380D01*
X118015380Y-84859761D01*
X117920142Y-84764523D01*
X117872523Y-84669285D01*
X117824904Y-84478809D01*
X117824904Y-84335952D01*
X117872523Y-84145476D01*
X117920142Y-84050238D01*
X118015380Y-83955000D01*
X118158238Y-83907380D01*
X118253476Y-83907380D01*
X118396333Y-83955000D01*
X118443952Y-84002619D01*
X118824904Y-84002619D02*
X118872523Y-83955000D01*
X118967761Y-83907380D01*
X119205857Y-83907380D01*
X119301095Y-83955000D01*
X119348714Y-84002619D01*
X119396333Y-84097857D01*
X119396333Y-84193095D01*
X119348714Y-84335952D01*
X118777285Y-84907380D01*
X119396333Y-84907380D01*
X120015380Y-83907380D02*
X120110619Y-83907380D01*
X120205857Y-83955000D01*
X120253476Y-84002619D01*
X120301095Y-84097857D01*
X120348714Y-84288333D01*
X120348714Y-84526428D01*
X120301095Y-84716904D01*
X120253476Y-84812142D01*
X120205857Y-84859761D01*
X120110619Y-84907380D01*
X120015380Y-84907380D01*
X119920142Y-84859761D01*
X119872523Y-84812142D01*
X119824904Y-84716904D01*
X119777285Y-84526428D01*
X119777285Y-84288333D01*
X119824904Y-84097857D01*
X119872523Y-84002619D01*
X119920142Y-83955000D01*
X120015380Y-83907380D01*
X121253476Y-83907380D02*
X120777285Y-83907380D01*
X120729666Y-84383571D01*
X120777285Y-84335952D01*
X120872523Y-84288333D01*
X121110619Y-84288333D01*
X121205857Y-84335952D01*
X121253476Y-84383571D01*
X121301095Y-84478809D01*
X121301095Y-84716904D01*
X121253476Y-84812142D01*
X121205857Y-84859761D01*
X121110619Y-84907380D01*
X120872523Y-84907380D01*
X120777285Y-84859761D01*
X120729666Y-84812142D01*
X121920142Y-83907380D02*
X122015380Y-83907380D01*
X122110619Y-83955000D01*
X122158238Y-84002619D01*
X122205857Y-84097857D01*
X122253476Y-84288333D01*
X122253476Y-84526428D01*
X122205857Y-84716904D01*
X122158238Y-84812142D01*
X122110619Y-84859761D01*
X122015380Y-84907380D01*
X121920142Y-84907380D01*
X121824904Y-84859761D01*
X121777285Y-84812142D01*
X121729666Y-84716904D01*
X121682047Y-84526428D01*
X121682047Y-84288333D01*
X121729666Y-84097857D01*
X121777285Y-84002619D01*
X121824904Y-83955000D01*
X121920142Y-83907380D01*
X122682047Y-84526428D02*
X123443952Y-84526428D01*
X123920142Y-84907380D02*
X123920142Y-83907380D01*
X124396333Y-84907380D02*
X124396333Y-83907380D01*
X124634428Y-83907380D01*
X124777285Y-83955000D01*
X124872523Y-84050238D01*
X124920142Y-84145476D01*
X124967761Y-84335952D01*
X124967761Y-84478809D01*
X124920142Y-84669285D01*
X124872523Y-84764523D01*
X124777285Y-84859761D01*
X124634428Y-84907380D01*
X124396333Y-84907380D01*
X125967761Y-84812142D02*
X125920142Y-84859761D01*
X125777285Y-84907380D01*
X125682047Y-84907380D01*
X125539190Y-84859761D01*
X125443952Y-84764523D01*
X125396333Y-84669285D01*
X125348714Y-84478809D01*
X125348714Y-84335952D01*
X125396333Y-84145476D01*
X125443952Y-84050238D01*
X125539190Y-83955000D01*
X125682047Y-83907380D01*
X125777285Y-83907380D01*
X125920142Y-83955000D01*
X125967761Y-84002619D01*
X126396333Y-84526428D02*
X127158238Y-84526428D01*
X127634428Y-84907380D02*
X127634428Y-83907380D01*
X128205857Y-84907380D01*
X128205857Y-83907380D01*
X129158238Y-84907380D02*
X128682047Y-84907380D01*
X128682047Y-83907380D01*
D11*
X125722047Y-80752190D02*
X125483952Y-80752190D01*
X125460142Y-80990285D01*
X125483952Y-80966476D01*
X125531571Y-80942666D01*
X125650619Y-80942666D01*
X125698238Y-80966476D01*
X125722047Y-80990285D01*
X125745857Y-81037904D01*
X125745857Y-81156952D01*
X125722047Y-81204571D01*
X125698238Y-81228380D01*
X125650619Y-81252190D01*
X125531571Y-81252190D01*
X125483952Y-81228380D01*
X125460142Y-81204571D01*
X125698238Y-77767690D02*
X125603000Y-77767690D01*
X125555380Y-77791500D01*
X125531571Y-77815309D01*
X125483952Y-77886738D01*
X125460142Y-77981976D01*
X125460142Y-78172452D01*
X125483952Y-78220071D01*
X125507761Y-78243880D01*
X125555380Y-78267690D01*
X125650619Y-78267690D01*
X125698238Y-78243880D01*
X125722047Y-78220071D01*
X125745857Y-78172452D01*
X125745857Y-78053404D01*
X125722047Y-78005785D01*
X125698238Y-77981976D01*
X125650619Y-77958166D01*
X125555380Y-77958166D01*
X125507761Y-77981976D01*
X125483952Y-78005785D01*
X125460142Y-78053404D01*
X120665857Y-81252190D02*
X120380142Y-81252190D01*
X120523000Y-81252190D02*
X120523000Y-80752190D01*
X120475380Y-80823619D01*
X120427761Y-80871238D01*
X120380142Y-80895047D01*
X120427761Y-78267690D02*
X120142047Y-78267690D01*
X120284904Y-78267690D02*
X120284904Y-77767690D01*
X120237285Y-77839119D01*
X120189666Y-77886738D01*
X120142047Y-77910547D01*
X120737285Y-77767690D02*
X120784904Y-77767690D01*
X120832523Y-77791500D01*
X120856333Y-77815309D01*
X120880142Y-77862928D01*
X120903952Y-77958166D01*
X120903952Y-78077214D01*
X120880142Y-78172452D01*
X120856333Y-78220071D01*
X120832523Y-78243880D01*
X120784904Y-78267690D01*
X120737285Y-78267690D01*
X120689666Y-78243880D01*
X120665857Y-78220071D01*
X120642047Y-78172452D01*
X120618238Y-78077214D01*
X120618238Y-77958166D01*
X120642047Y-77862928D01*
X120665857Y-77815309D01*
X120689666Y-77791500D01*
X120737285Y-77767690D01*
D10*
X100584761Y-84034380D02*
X101156190Y-84034380D01*
X100870476Y-85034380D02*
X100870476Y-84034380D01*
X102060952Y-84939142D02*
X102013333Y-84986761D01*
X101870476Y-85034380D01*
X101775238Y-85034380D01*
X101632380Y-84986761D01*
X101537142Y-84891523D01*
X101489523Y-84796285D01*
X101441904Y-84605809D01*
X101441904Y-84462952D01*
X101489523Y-84272476D01*
X101537142Y-84177238D01*
X101632380Y-84082000D01*
X101775238Y-84034380D01*
X101870476Y-84034380D01*
X102013333Y-84082000D01*
X102060952Y-84129619D01*
X102441904Y-84129619D02*
X102489523Y-84082000D01*
X102584761Y-84034380D01*
X102822857Y-84034380D01*
X102918095Y-84082000D01*
X102965714Y-84129619D01*
X103013333Y-84224857D01*
X103013333Y-84320095D01*
X102965714Y-84462952D01*
X102394285Y-85034380D01*
X103013333Y-85034380D01*
X103632380Y-84034380D02*
X103727619Y-84034380D01*
X103822857Y-84082000D01*
X103870476Y-84129619D01*
X103918095Y-84224857D01*
X103965714Y-84415333D01*
X103965714Y-84653428D01*
X103918095Y-84843904D01*
X103870476Y-84939142D01*
X103822857Y-84986761D01*
X103727619Y-85034380D01*
X103632380Y-85034380D01*
X103537142Y-84986761D01*
X103489523Y-84939142D01*
X103441904Y-84843904D01*
X103394285Y-84653428D01*
X103394285Y-84415333D01*
X103441904Y-84224857D01*
X103489523Y-84129619D01*
X103537142Y-84082000D01*
X103632380Y-84034380D01*
X104870476Y-84034380D02*
X104394285Y-84034380D01*
X104346666Y-84510571D01*
X104394285Y-84462952D01*
X104489523Y-84415333D01*
X104727619Y-84415333D01*
X104822857Y-84462952D01*
X104870476Y-84510571D01*
X104918095Y-84605809D01*
X104918095Y-84843904D01*
X104870476Y-84939142D01*
X104822857Y-84986761D01*
X104727619Y-85034380D01*
X104489523Y-85034380D01*
X104394285Y-84986761D01*
X104346666Y-84939142D01*
X105537142Y-84034380D02*
X105632380Y-84034380D01*
X105727619Y-84082000D01*
X105775238Y-84129619D01*
X105822857Y-84224857D01*
X105870476Y-84415333D01*
X105870476Y-84653428D01*
X105822857Y-84843904D01*
X105775238Y-84939142D01*
X105727619Y-84986761D01*
X105632380Y-85034380D01*
X105537142Y-85034380D01*
X105441904Y-84986761D01*
X105394285Y-84939142D01*
X105346666Y-84843904D01*
X105299047Y-84653428D01*
X105299047Y-84415333D01*
X105346666Y-84224857D01*
X105394285Y-84129619D01*
X105441904Y-84082000D01*
X105537142Y-84034380D01*
X106299047Y-84653428D02*
X107060952Y-84653428D01*
X107537142Y-85034380D02*
X107537142Y-84034380D01*
X108013333Y-85034380D02*
X108013333Y-84034380D01*
X108251428Y-84034380D01*
X108394285Y-84082000D01*
X108489523Y-84177238D01*
X108537142Y-84272476D01*
X108584761Y-84462952D01*
X108584761Y-84605809D01*
X108537142Y-84796285D01*
X108489523Y-84891523D01*
X108394285Y-84986761D01*
X108251428Y-85034380D01*
X108013333Y-85034380D01*
X109584761Y-84939142D02*
X109537142Y-84986761D01*
X109394285Y-85034380D01*
X109299047Y-85034380D01*
X109156190Y-84986761D01*
X109060952Y-84891523D01*
X109013333Y-84796285D01*
X108965714Y-84605809D01*
X108965714Y-84462952D01*
X109013333Y-84272476D01*
X109060952Y-84177238D01*
X109156190Y-84082000D01*
X109299047Y-84034380D01*
X109394285Y-84034380D01*
X109537142Y-84082000D01*
X109584761Y-84129619D01*
X110013333Y-84653428D02*
X110775238Y-84653428D01*
X111584761Y-84510571D02*
X111251428Y-84510571D01*
X111251428Y-85034380D02*
X111251428Y-84034380D01*
X111727619Y-84034380D01*
X112441904Y-84510571D02*
X112584761Y-84558190D01*
X112632380Y-84605809D01*
X112680000Y-84701047D01*
X112680000Y-84843904D01*
X112632380Y-84939142D01*
X112584761Y-84986761D01*
X112489523Y-85034380D01*
X112108571Y-85034380D01*
X112108571Y-84034380D01*
X112441904Y-84034380D01*
X112537142Y-84082000D01*
X112584761Y-84129619D01*
X112632380Y-84224857D01*
X112632380Y-84320095D01*
X112584761Y-84415333D01*
X112537142Y-84462952D01*
X112441904Y-84510571D01*
X112108571Y-84510571D01*
D11*
X109974047Y-80625190D02*
X109735952Y-80625190D01*
X109712142Y-80863285D01*
X109735952Y-80839476D01*
X109783571Y-80815666D01*
X109902619Y-80815666D01*
X109950238Y-80839476D01*
X109974047Y-80863285D01*
X109997857Y-80910904D01*
X109997857Y-81029952D01*
X109974047Y-81077571D01*
X109950238Y-81101380D01*
X109902619Y-81125190D01*
X109783571Y-81125190D01*
X109735952Y-81101380D01*
X109712142Y-81077571D01*
X109950238Y-77640690D02*
X109855000Y-77640690D01*
X109807380Y-77664500D01*
X109783571Y-77688309D01*
X109735952Y-77759738D01*
X109712142Y-77854976D01*
X109712142Y-78045452D01*
X109735952Y-78093071D01*
X109759761Y-78116880D01*
X109807380Y-78140690D01*
X109902619Y-78140690D01*
X109950238Y-78116880D01*
X109974047Y-78093071D01*
X109997857Y-78045452D01*
X109997857Y-77926404D01*
X109974047Y-77878785D01*
X109950238Y-77854976D01*
X109902619Y-77831166D01*
X109807380Y-77831166D01*
X109759761Y-77854976D01*
X109735952Y-77878785D01*
X109712142Y-77926404D01*
X104282857Y-81125190D02*
X103997142Y-81125190D01*
X104140000Y-81125190D02*
X104140000Y-80625190D01*
X104092380Y-80696619D01*
X104044761Y-80744238D01*
X103997142Y-80768047D01*
X104044761Y-78140690D02*
X103759047Y-78140690D01*
X103901904Y-78140690D02*
X103901904Y-77640690D01*
X103854285Y-77712119D01*
X103806666Y-77759738D01*
X103759047Y-77783547D01*
X104354285Y-77640690D02*
X104401904Y-77640690D01*
X104449523Y-77664500D01*
X104473333Y-77688309D01*
X104497142Y-77735928D01*
X104520952Y-77831166D01*
X104520952Y-77950214D01*
X104497142Y-78045452D01*
X104473333Y-78093071D01*
X104449523Y-78116880D01*
X104401904Y-78140690D01*
X104354285Y-78140690D01*
X104306666Y-78116880D01*
X104282857Y-78093071D01*
X104259047Y-78045452D01*
X104235238Y-77950214D01*
X104235238Y-77831166D01*
X104259047Y-77735928D01*
X104282857Y-77688309D01*
X104306666Y-77664500D01*
X104354285Y-77640690D01*
D10*
X116840761Y-71715380D02*
X117412190Y-71715380D01*
X117126476Y-72715380D02*
X117126476Y-71715380D01*
X118316952Y-72620142D02*
X118269333Y-72667761D01*
X118126476Y-72715380D01*
X118031238Y-72715380D01*
X117888380Y-72667761D01*
X117793142Y-72572523D01*
X117745523Y-72477285D01*
X117697904Y-72286809D01*
X117697904Y-72143952D01*
X117745523Y-71953476D01*
X117793142Y-71858238D01*
X117888380Y-71763000D01*
X118031238Y-71715380D01*
X118126476Y-71715380D01*
X118269333Y-71763000D01*
X118316952Y-71810619D01*
X118697904Y-71810619D02*
X118745523Y-71763000D01*
X118840761Y-71715380D01*
X119078857Y-71715380D01*
X119174095Y-71763000D01*
X119221714Y-71810619D01*
X119269333Y-71905857D01*
X119269333Y-72001095D01*
X119221714Y-72143952D01*
X118650285Y-72715380D01*
X119269333Y-72715380D01*
X119888380Y-71715380D02*
X119983619Y-71715380D01*
X120078857Y-71763000D01*
X120126476Y-71810619D01*
X120174095Y-71905857D01*
X120221714Y-72096333D01*
X120221714Y-72334428D01*
X120174095Y-72524904D01*
X120126476Y-72620142D01*
X120078857Y-72667761D01*
X119983619Y-72715380D01*
X119888380Y-72715380D01*
X119793142Y-72667761D01*
X119745523Y-72620142D01*
X119697904Y-72524904D01*
X119650285Y-72334428D01*
X119650285Y-72096333D01*
X119697904Y-71905857D01*
X119745523Y-71810619D01*
X119793142Y-71763000D01*
X119888380Y-71715380D01*
X120555047Y-71715380D02*
X121174095Y-71715380D01*
X120840761Y-72096333D01*
X120983619Y-72096333D01*
X121078857Y-72143952D01*
X121126476Y-72191571D01*
X121174095Y-72286809D01*
X121174095Y-72524904D01*
X121126476Y-72620142D01*
X121078857Y-72667761D01*
X120983619Y-72715380D01*
X120697904Y-72715380D01*
X120602666Y-72667761D01*
X120555047Y-72620142D01*
X121793142Y-71715380D02*
X121888380Y-71715380D01*
X121983619Y-71763000D01*
X122031238Y-71810619D01*
X122078857Y-71905857D01*
X122126476Y-72096333D01*
X122126476Y-72334428D01*
X122078857Y-72524904D01*
X122031238Y-72620142D01*
X121983619Y-72667761D01*
X121888380Y-72715380D01*
X121793142Y-72715380D01*
X121697904Y-72667761D01*
X121650285Y-72620142D01*
X121602666Y-72524904D01*
X121555047Y-72334428D01*
X121555047Y-72096333D01*
X121602666Y-71905857D01*
X121650285Y-71810619D01*
X121697904Y-71763000D01*
X121793142Y-71715380D01*
X122555047Y-72334428D02*
X123316952Y-72334428D01*
X123793142Y-72715380D02*
X123793142Y-71715380D01*
X124269333Y-72715380D02*
X124269333Y-71715380D01*
X124507428Y-71715380D01*
X124650285Y-71763000D01*
X124745523Y-71858238D01*
X124793142Y-71953476D01*
X124840761Y-72143952D01*
X124840761Y-72286809D01*
X124793142Y-72477285D01*
X124745523Y-72572523D01*
X124650285Y-72667761D01*
X124507428Y-72715380D01*
X124269333Y-72715380D01*
X125840761Y-72620142D02*
X125793142Y-72667761D01*
X125650285Y-72715380D01*
X125555047Y-72715380D01*
X125412190Y-72667761D01*
X125316952Y-72572523D01*
X125269333Y-72477285D01*
X125221714Y-72286809D01*
X125221714Y-72143952D01*
X125269333Y-71953476D01*
X125316952Y-71858238D01*
X125412190Y-71763000D01*
X125555047Y-71715380D01*
X125650285Y-71715380D01*
X125793142Y-71763000D01*
X125840761Y-71810619D01*
X126269333Y-72334428D02*
X127031238Y-72334428D01*
X127507428Y-72715380D02*
X127507428Y-71715380D01*
X128078857Y-72715380D01*
X128078857Y-71715380D01*
X129031238Y-72715380D02*
X128555047Y-72715380D01*
X128555047Y-71715380D01*
D11*
X124039333Y-68815190D02*
X124348857Y-68815190D01*
X124182190Y-69005666D01*
X124253619Y-69005666D01*
X124301238Y-69029476D01*
X124325047Y-69053285D01*
X124348857Y-69100904D01*
X124348857Y-69219952D01*
X124325047Y-69267571D01*
X124301238Y-69291380D01*
X124253619Y-69315190D01*
X124110761Y-69315190D01*
X124063142Y-69291380D01*
X124039333Y-69267571D01*
X124301238Y-65997357D02*
X124301238Y-66330690D01*
X124182190Y-65806880D02*
X124063142Y-66164023D01*
X124372666Y-66164023D01*
X121808857Y-69315190D02*
X121523142Y-69315190D01*
X121666000Y-69315190D02*
X121666000Y-68815190D01*
X121618380Y-68886619D01*
X121570761Y-68934238D01*
X121523142Y-68958047D01*
X121761238Y-65830690D02*
X121666000Y-65830690D01*
X121618380Y-65854500D01*
X121594571Y-65878309D01*
X121546952Y-65949738D01*
X121523142Y-66044976D01*
X121523142Y-66235452D01*
X121546952Y-66283071D01*
X121570761Y-66306880D01*
X121618380Y-66330690D01*
X121713619Y-66330690D01*
X121761238Y-66306880D01*
X121785047Y-66283071D01*
X121808857Y-66235452D01*
X121808857Y-66116404D01*
X121785047Y-66068785D01*
X121761238Y-66044976D01*
X121713619Y-66021166D01*
X121618380Y-66021166D01*
X121570761Y-66044976D01*
X121546952Y-66068785D01*
X121523142Y-66116404D01*
D10*
X99949761Y-71842380D02*
X100521190Y-71842380D01*
X100235476Y-72842380D02*
X100235476Y-71842380D01*
X101425952Y-72747142D02*
X101378333Y-72794761D01*
X101235476Y-72842380D01*
X101140238Y-72842380D01*
X100997380Y-72794761D01*
X100902142Y-72699523D01*
X100854523Y-72604285D01*
X100806904Y-72413809D01*
X100806904Y-72270952D01*
X100854523Y-72080476D01*
X100902142Y-71985238D01*
X100997380Y-71890000D01*
X101140238Y-71842380D01*
X101235476Y-71842380D01*
X101378333Y-71890000D01*
X101425952Y-71937619D01*
X101806904Y-71937619D02*
X101854523Y-71890000D01*
X101949761Y-71842380D01*
X102187857Y-71842380D01*
X102283095Y-71890000D01*
X102330714Y-71937619D01*
X102378333Y-72032857D01*
X102378333Y-72128095D01*
X102330714Y-72270952D01*
X101759285Y-72842380D01*
X102378333Y-72842380D01*
X102997380Y-71842380D02*
X103092619Y-71842380D01*
X103187857Y-71890000D01*
X103235476Y-71937619D01*
X103283095Y-72032857D01*
X103330714Y-72223333D01*
X103330714Y-72461428D01*
X103283095Y-72651904D01*
X103235476Y-72747142D01*
X103187857Y-72794761D01*
X103092619Y-72842380D01*
X102997380Y-72842380D01*
X102902142Y-72794761D01*
X102854523Y-72747142D01*
X102806904Y-72651904D01*
X102759285Y-72461428D01*
X102759285Y-72223333D01*
X102806904Y-72032857D01*
X102854523Y-71937619D01*
X102902142Y-71890000D01*
X102997380Y-71842380D01*
X103664047Y-71842380D02*
X104283095Y-71842380D01*
X103949761Y-72223333D01*
X104092619Y-72223333D01*
X104187857Y-72270952D01*
X104235476Y-72318571D01*
X104283095Y-72413809D01*
X104283095Y-72651904D01*
X104235476Y-72747142D01*
X104187857Y-72794761D01*
X104092619Y-72842380D01*
X103806904Y-72842380D01*
X103711666Y-72794761D01*
X103664047Y-72747142D01*
X104902142Y-71842380D02*
X104997380Y-71842380D01*
X105092619Y-71890000D01*
X105140238Y-71937619D01*
X105187857Y-72032857D01*
X105235476Y-72223333D01*
X105235476Y-72461428D01*
X105187857Y-72651904D01*
X105140238Y-72747142D01*
X105092619Y-72794761D01*
X104997380Y-72842380D01*
X104902142Y-72842380D01*
X104806904Y-72794761D01*
X104759285Y-72747142D01*
X104711666Y-72651904D01*
X104664047Y-72461428D01*
X104664047Y-72223333D01*
X104711666Y-72032857D01*
X104759285Y-71937619D01*
X104806904Y-71890000D01*
X104902142Y-71842380D01*
X105664047Y-72461428D02*
X106425952Y-72461428D01*
X106902142Y-72842380D02*
X106902142Y-71842380D01*
X107378333Y-72842380D02*
X107378333Y-71842380D01*
X107616428Y-71842380D01*
X107759285Y-71890000D01*
X107854523Y-71985238D01*
X107902142Y-72080476D01*
X107949761Y-72270952D01*
X107949761Y-72413809D01*
X107902142Y-72604285D01*
X107854523Y-72699523D01*
X107759285Y-72794761D01*
X107616428Y-72842380D01*
X107378333Y-72842380D01*
X108949761Y-72747142D02*
X108902142Y-72794761D01*
X108759285Y-72842380D01*
X108664047Y-72842380D01*
X108521190Y-72794761D01*
X108425952Y-72699523D01*
X108378333Y-72604285D01*
X108330714Y-72413809D01*
X108330714Y-72270952D01*
X108378333Y-72080476D01*
X108425952Y-71985238D01*
X108521190Y-71890000D01*
X108664047Y-71842380D01*
X108759285Y-71842380D01*
X108902142Y-71890000D01*
X108949761Y-71937619D01*
X109378333Y-72461428D02*
X110140238Y-72461428D01*
X110949761Y-72318571D02*
X110616428Y-72318571D01*
X110616428Y-72842380D02*
X110616428Y-71842380D01*
X111092619Y-71842380D01*
X111806904Y-72318571D02*
X111949761Y-72366190D01*
X111997380Y-72413809D01*
X112045000Y-72509047D01*
X112045000Y-72651904D01*
X111997380Y-72747142D01*
X111949761Y-72794761D01*
X111854523Y-72842380D01*
X111473571Y-72842380D01*
X111473571Y-71842380D01*
X111806904Y-71842380D01*
X111902142Y-71890000D01*
X111949761Y-71937619D01*
X111997380Y-72032857D01*
X111997380Y-72128095D01*
X111949761Y-72223333D01*
X111902142Y-72270952D01*
X111806904Y-72318571D01*
X111473571Y-72318571D01*
D11*
X107148333Y-68560190D02*
X107457857Y-68560190D01*
X107291190Y-68750666D01*
X107362619Y-68750666D01*
X107410238Y-68774476D01*
X107434047Y-68798285D01*
X107457857Y-68845904D01*
X107457857Y-68964952D01*
X107434047Y-69012571D01*
X107410238Y-69036380D01*
X107362619Y-69060190D01*
X107219761Y-69060190D01*
X107172142Y-69036380D01*
X107148333Y-69012571D01*
X107410238Y-65742357D02*
X107410238Y-66075690D01*
X107291190Y-65551880D02*
X107172142Y-65909023D01*
X107481666Y-65909023D01*
X104282857Y-69060190D02*
X103997142Y-69060190D01*
X104140000Y-69060190D02*
X104140000Y-68560190D01*
X104092380Y-68631619D01*
X104044761Y-68679238D01*
X103997142Y-68703047D01*
X104235238Y-65575690D02*
X104140000Y-65575690D01*
X104092380Y-65599500D01*
X104068571Y-65623309D01*
X104020952Y-65694738D01*
X103997142Y-65789976D01*
X103997142Y-65980452D01*
X104020952Y-66028071D01*
X104044761Y-66051880D01*
X104092380Y-66075690D01*
X104187619Y-66075690D01*
X104235238Y-66051880D01*
X104259047Y-66028071D01*
X104282857Y-65980452D01*
X104282857Y-65861404D01*
X104259047Y-65813785D01*
X104235238Y-65789976D01*
X104187619Y-65766166D01*
X104092380Y-65766166D01*
X104044761Y-65789976D01*
X104020952Y-65813785D01*
X103997142Y-65861404D01*
M02*
