M48
; DRILL file {KiCad (5.1.0-rc1-9-g8f320697a)} date 2019 March 02, Saturday 18:11:18
; FORMAT={-:-/ absolute / inch / decimal}
; #@! TF.CreationDate,2019-03-02T18:11:18+09:00
; #@! TF.GenerationSoftware,Kicad,Pcbnew,(5.1.0-rc1-9-g8f320697a)
; #@! TF.FileFunction,NonPlated,1,2,NPTH
FMAT,2
INCH
T1C0.0390
T2C0.0935
%
G90
G05
T1
X4.05Y-2.65
X4.25Y-2.61
X4.25Y-2.69
X4.05Y-3.125
X4.35Y-3.085
X4.35Y-3.165
X4.74Y-2.66
X4.94Y-2.6201
X4.94Y-2.7
X4.695Y-3.13
X4.995Y-3.09
X4.995Y-3.17
X4.675Y-3.605
X5.075Y-3.565
X5.075Y-3.645
X4.05Y-3.61
X4.45Y-3.57
X4.45Y-3.65
T2
X4.05Y-2.55
X4.05Y-2.75
X4.175Y-2.55
X4.175Y-2.75
X4.05Y-3.025
X4.05Y-3.225
X4.275Y-3.025
X4.275Y-3.225
X4.05Y-3.51
X4.05Y-3.71
X4.375Y-3.51
X4.375Y-3.71
T0
M30
